<svg width="45" height="48" viewBox="0 0 45 48" fill="none" xmlns="http://www.w3.org/2000/svg">
<path d="M19.3802 12.7396C19.0366 13.1159 19.0713 13.6918 19.4575 14.0267C19.6364 14.1813 19.8587 14.2574 20.0806 14.2574C20.3382 14.2574 20.5953 14.1545 20.7801 13.9523C20.8117 13.918 23.9859 10.494 29.1307 8.20964C29.162 8.19583 29.186 8.17067 29.2154 8.15357C29.247 8.13526 29.2819 8.12596 29.3118 8.10364C29.3392 8.08315 29.3613 8.0601 29.3881 8.03933L29.3905 8.03772L29.3953 8.03321C32.1759 5.86918 31.6385 2.05992 31.6136 1.89685C31.5376 1.39981 31.0632 1.05554 30.5526 1.12902C30.0416 1.20118 29.687 1.66348 29.7593 2.16096C29.7638 2.19047 30.1577 5.10112 28.2288 6.6075C26.655 7.31554 25.2674 8.11254 24.0809 8.89374C24.8682 6.01559 27.0659 3.20281 27.0924 3.16885C27.4081 2.7698 27.3317 2.19704 26.9218 1.88973C26.5132 1.58242 25.9249 1.6568 25.6083 2.05496C25.4637 2.23779 22.1158 6.51475 21.9401 10.4362C20.3495 11.6922 19.4507 12.6625 19.3802 12.7396Z" fill="white" fill-opacity="0.6"/>
<path d="M34.308 7.20956C34.3798 7.20956 34.4521 7.20154 34.5239 7.18507L41.5399 5.56879C42.0431 5.45255 42.3547 4.9613 42.2357 4.47094C42.1168 3.98057 41.6117 3.67861 41.108 3.79352L35.3456 5.12119L35.5954 2.10554C35.637 1.60315 35.2527 1.16356 34.7371 1.12303C34.2137 1.07627 33.7695 1.45662 33.7278 1.95856L33.3742 6.22394C33.3499 6.51477 33.4702 6.79937 33.6976 6.98954C33.8692 7.13296 34.0865 7.20956 34.308 7.20956Z" fill="white" fill-opacity="0.6"/>
<path d="M27.403 12.1343C25.0127 13.7745 23.6838 16.4714 23.7594 19.2538C23.6339 19.8309 22.6876 23.8957 20.2137 27.9242C17.6166 24.9706 13.9819 25.2234 12.3069 25.8372C11.8238 26.014 11.5808 26.5369 11.7602 27.0076C11.94 27.478 12.4757 27.7189 12.963 27.5461C13.1187 27.4921 16.7135 26.2708 19.1319 29.5389C18.1672 30.8547 17.0235 32.1135 15.6728 33.1841C15.2716 33.5021 15.2112 34.0767 15.5379 34.4673C15.7231 34.6886 15.9926 34.8035 16.2648 34.8035C16.473 34.8035 16.6821 34.7363 16.856 34.5986C21.0479 31.2757 23.3732 26.4534 24.5574 23.1603C25.734 28.1289 26.4607 35.6218 22.1407 40.6687C21.8094 41.0557 21.863 41.6307 22.2605 41.9532C22.4358 42.0952 22.6485 42.1647 22.8599 42.1647C23.1284 42.1647 23.3947 42.0529 23.58 41.8365C26.407 38.5341 27.3081 34.3767 27.3222 30.4248C28.1144 29.8428 30.3143 28.4062 32.4475 28.6493C33.6128 28.7816 34.5818 29.3895 35.4099 30.5079C35.5929 30.755 35.8798 30.8864 36.1708 30.8864C36.3606 30.8864 36.5519 30.8303 36.7179 30.7141C37.1375 30.4197 37.2327 29.8496 36.9298 29.4407C35.7906 27.9024 34.3526 27.0259 32.6552 26.8362C30.5554 26.6 28.5485 27.4929 27.2493 28.2673C27.0412 25.4255 26.4502 22.8029 25.8827 20.8356C25.1012 18.1264 26.1457 15.2287 28.4827 13.6254C29.8116 12.7132 31.2745 11.9128 32.8648 11.2266L32.8689 11.2261C32.9 11.2168 36.0459 10.2508 38.3961 11.6733C39.9709 12.6264 41.358 13.1876 42.7617 13.4383L43.2791 13.531C43.3363 13.5412 43.3931 13.5461 43.4493 13.5461C43.8927 13.5461 44.287 13.2388 44.3699 12.7988C44.4636 12.3035 44.1269 11.8278 43.6177 11.737L43.1003 11.6443C41.935 11.4359 40.7546 10.9527 39.3857 10.1243C38.9477 9.85904 38.4939 9.66107 38.0375 9.50703C39.2542 9.20645 40.523 8.95626 41.8435 8.75829C42.355 8.68169 42.7054 8.21582 42.6267 7.71789C42.5476 7.21951 42.0676 6.87746 41.558 6.9554C35.9466 7.79672 31.1839 9.53904 27.403 12.1343Z" fill="white" fill-opacity="0.6"/>
<path d="M43.9027 14.6476C39.7366 15.3491 36.5134 13.2963 36.4841 13.2772C36.3267 13.1734 36.1332 13.1271 35.9507 13.1209C31.3028 13.1632 29.6782 16.8233 29.4682 18.7527C29.4137 19.2533 29.7871 19.7026 30.3018 19.7556C30.3352 19.7588 30.3681 19.7605 30.4015 19.7605C30.8746 19.7605 31.2808 19.4127 31.3321 18.9442C31.349 18.7861 31.7905 15.1447 35.705 14.9527C35.7807 14.9962 35.8766 15.0486 35.9816 15.1043C36.7709 16.2599 41.3725 23.5676 38.0589 32.2676C34.8255 40.7562 26.4916 45.072 24.6204 45.9506C22.2105 44.739 8.89537 37.4227 7.82508 23.3218C7.36345 17.2348 12.3307 13.222 12.381 13.1819C12.6052 13.0042 12.7342 12.7347 12.7273 12.4528C12.6537 9.28126 10.7408 7.05304 9.59291 5.9966L11.164 4.46717C12.3371 4.99896 15.1837 6.62993 16.6121 10.4041C16.7585 10.7915 17.1533 11.0262 17.5765 10.9973C17.9988 10.9594 18.3424 10.6508 18.4147 10.2442C18.4229 10.197 19.294 5.49422 22.9916 2.48747C23.3887 2.16457 23.4418 1.58914 23.1101 1.20256C22.778 0.815524 22.1869 0.764306 21.7902 1.0872C19.3352 3.08383 17.9823 5.67682 17.2727 7.53983C14.928 3.75323 11.4097 2.58234 11.2363 2.52666C10.9014 2.41977 10.5308 2.50484 10.2801 2.74802L7.54782 5.40781C7.35292 5.59754 7.25456 5.8621 7.27789 6.12977C7.30077 6.397 7.44488 6.64195 7.66952 6.79739C7.69926 6.81832 10.5317 8.81673 10.8305 12.0809C10.3926 12.4733 9.62945 13.2239 8.83412 14.2751L8.13985 14.3305C4.22262 14.6432 0.986635 17.4887 0.269712 21.2503C-0.538713 25.4939 0.489776 29.9325 3.09211 33.4278C5.16144 36.2066 8.36128 37.9832 11.8709 38.3029L12.1032 38.3241C16.694 43.908 23.6235 47.8714 24.603 47.8746C24.6036 47.8746 24.6042 47.875 24.6042 47.875H24.6057C24.6064 47.875 24.6072 47.8746 24.6078 47.8746C25.545 47.8717 36.0359 42.8248 39.8157 32.9019C42.5812 25.6419 40.4183 19.4025 38.7758 16.1828C40.2504 16.5704 42.1249 16.7997 44.223 16.4452C44.7331 16.3588 45.0744 15.8867 44.9861 15.3905C44.8978 14.8944 44.4101 14.5643 43.9027 14.6476ZM4.60922 32.3572C2.30702 29.2645 1.39702 25.3376 2.11257 21.583C2.62899 18.872 4.81848 16.7868 7.55137 16.269C6.52683 18.1633 5.73922 20.5912 5.9566 23.4563C6.34314 28.55 8.16833 32.7866 10.5245 36.222C8.16186 35.6531 6.05679 34.3008 4.60922 32.3572Z" fill="white" fill-opacity="0.6"/>
</svg>
