<svg width="47" height="49" viewBox="0 0 47 49" fill="none" xmlns="http://www.w3.org/2000/svg">
<path d="M45.7107 40.2938L40.5125 37.6784C39.0849 36.9629 37.8662 35.7575 37.0097 34.2143C36.1533 32.6711 35.6974 30.8589 35.6995 29.0061V17.4342C36.269 16.8868 36.7725 16.2477 37.1955 15.5349C38.5643 13.1271 39.6429 5.84587 40.4581 1.68078C40.5767 0.96278 39.7175 0.711921 39.5541 1.42625C38.7793 5.36261 37.7024 12.6038 36.4278 14.9092C34.4773 18.3405 28.0315 21.1984 25.3512 22.268C24.1473 22.7456 22.8469 22.7456 21.643 22.268C18.9623 21.1984 12.5167 18.3405 10.5664 14.9089C9.29263 12.6021 8.21543 5.36438 7.44017 1.42625C7.28887 0.727155 6.4159 0.946212 6.53609 1.68078C7.35138 5.84587 8.42988 13.1271 9.79864 15.5348C10.2217 16.2476 10.7252 16.8868 11.2947 17.4342V29.0061C11.2968 30.8589 10.841 32.6711 9.9845 34.2143C9.12803 35.7575 7.90929 36.9629 6.48176 37.6784L1.28325 40.2938C0.725976 40.6001 1.06823 41.5818 1.64315 41.3188L6.84166 38.7034C8.43795 37.9034 9.80078 36.5556 10.7585 34.83C11.7162 33.1043 12.2259 31.0779 12.2235 29.0061V18.2771C14.9449 20.5487 18.845 22.3239 21.3492 23.3228C22.7439 23.8759 24.2503 23.8759 25.6449 23.3228C28.1492 22.3237 32.049 20.5486 34.7707 18.2771V29.0061C34.7683 31.0779 35.278 33.1042 36.2356 34.8299C37.1933 36.5555 38.5561 37.9033 40.1523 38.7034L45.3508 41.3188C45.4072 41.348 45.4678 41.3636 45.5292 41.3647C45.5906 41.3657 45.6516 41.3521 45.7086 41.3247C45.7656 41.2973 45.8175 41.2566 45.8613 41.205C45.9051 41.1534 45.9399 41.092 45.9637 41.0242C45.9875 40.9564 45.9999 40.8836 46 40.8101C46.0001 40.7365 45.9881 40.6637 45.9646 40.5957C45.941 40.5278 45.9065 40.4661 45.8629 40.4143C45.8193 40.3625 45.7676 40.3215 45.7107 40.2938Z" fill="white" fill-opacity="0.6" stroke="white" stroke-opacity="0.6"/>
<path d="M15.3406 23.0419C15.2604 22.34 14.4117 22.4413 14.4547 23.1587C14.4917 23.5697 15.3934 33.2838 18.2794 38.3664C18.3464 38.4843 18.4493 38.5651 18.5655 38.5912C18.6817 38.6173 18.8017 38.5864 18.8991 38.5054C18.9965 38.4243 19.0633 38.2998 19.0848 38.1592C19.1064 38.0185 19.0809 37.8733 19.0139 37.7554C16.2556 32.8979 15.3494 23.1399 15.3406 23.0419Z" fill="white" fill-opacity="0.6" stroke="white" stroke-opacity="0.6"/>
<path d="M32.1492 22.5681C32.0317 22.5526 31.914 22.5942 31.8219 22.6838C31.7298 22.7734 31.6709 22.9035 31.6581 23.0457C31.6492 23.1437 30.7433 32.8993 27.9856 37.7556C27.9187 37.8735 27.8932 38.0187 27.9147 38.1593C27.9362 38.2999 28.003 38.4244 28.1004 38.5054C28.1978 38.5864 28.3177 38.6173 28.4339 38.5912C28.5501 38.5652 28.653 38.4843 28.7199 38.3665C31.6053 33.2851 32.5068 23.5734 32.5438 23.1625C32.5566 23.0203 32.5222 22.8778 32.4482 22.7664C32.3742 22.6549 32.2666 22.5836 32.1492 22.5681Z" fill="white" fill-opacity="0.6" stroke="white" stroke-opacity="0.6"/>
<path d="M16.4752 46.9629C12.524 45.3376 8.44091 44.2042 4.29182 43.5812C4.23297 43.572 4.17318 43.5768 4.11588 43.5951C4.05859 43.6135 4.00492 43.6451 3.95798 43.6882C3.91103 43.7312 3.87172 43.7848 3.84232 43.846C3.81292 43.9071 3.794 43.9745 3.78666 44.0443C3.77932 44.1141 3.7837 44.185 3.79954 44.2528C3.81538 44.3206 3.84238 44.384 3.87898 44.4394C3.91558 44.4948 3.96106 44.5411 4.0128 44.5756C4.06453 44.61 4.12151 44.632 4.18045 44.6403C9.72428 45.442 13.9935 47.1188 16.3258 48.0002C16.4315 47.9992 16.5336 47.9541 16.6142 47.8728C16.6947 47.7915 16.7486 47.6793 16.7665 47.5557C16.7843 47.4321 16.7649 47.305 16.7116 47.1966C16.6584 47.0883 16.5747 47.0055 16.4752 46.9629Z" fill="white" fill-opacity="0.6" stroke="white" stroke-opacity="0.6"/>
<path d="M42.7136 43.5795C38.5629 44.2027 34.4782 45.3364 30.5254 46.9623C29.9705 47.2165 30.2571 48.1839 30.8244 47.9694C34.7163 46.3687 38.7382 45.2525 42.825 44.6389C43.4092 44.5312 43.3121 43.5166 42.7136 43.5795Z" fill="white" fill-opacity="0.6" stroke="white" stroke-opacity="0.6"/>
</svg>
