<svg width="45" height="47" viewBox="0 0 45 47" fill="none" xmlns="http://www.w3.org/2000/svg">
<path d="M0.000256737 24.7426C-0.022617 27.4748 1.48449 29.9883 3.90408 31.2552C2.49857 32.947 2.19869 35.3001 3.13652 37.2921C4.07435 39.2815 6.07707 40.5484 8.27551 40.5433C8.52712 40.5611 8.77874 40.5611 9.03038 40.5433C9.29978 43.7589 11.7168 46.3792 14.8963 46.9058C18.0783 47.4299 21.2095 45.728 22.4983 42.7693C23.8377 45.6873 26.9765 47.3281 30.1329 46.7659C33.2895 46.2011 35.6658 43.5732 35.9149 40.3728C36.1665 40.3932 36.4181 40.3932 36.6698 40.3728C38.8046 40.3296 40.7312 39.0855 41.6563 37.1597C42.5814 35.234 42.3425 32.9495 41.0412 31.2551C43.4227 30.0416 44.9451 27.6121 44.9984 24.9384C45.0543 22.2621 43.631 19.7741 41.3005 18.4639C41.4682 18.235 41.6156 17.9908 41.7427 17.7338C42.2434 16.6907 42.3069 15.49 41.9206 14.3961C41.5368 13.3047 40.7337 12.4118 39.6891 11.9131C39.5188 11.7173 39.4146 11.7173 39.1681 11.7173C39.5824 9.48362 38.9724 7.18134 37.5059 5.44377C36.042 3.70874 33.8766 2.72169 31.607 2.75477C31.1698 2.75732 30.7353 2.80311 30.3057 2.88706C29.7415 1.30722 28.3207 0.190439 26.6535 0.0225436C24.9837 -0.147905 23.3673 0.658541 22.4981 2.09082C21.6289 0.658567 20.0124 -0.147892 18.3426 0.0225436C16.6754 0.190446 15.2547 1.30729 14.6904 2.88706C14.2609 2.8031 13.8263 2.75731 13.3891 2.75477C11.1195 2.7217 8.95415 3.70874 7.49022 5.44377C6.02375 7.18134 5.41377 9.48362 5.82804 11.7173C5.64504 11.7834 5.4773 11.8216 5.30702 11.9004C4.26242 12.399 3.45934 13.292 3.07553 14.3834C2.68921 15.4773 2.75276 16.678 3.25344 17.7211C3.38052 17.9755 3.52793 18.2197 3.69567 18.4512C1.42098 19.7308 0.0104067 22.1324 0.000256737 24.7426ZM23.1486 18.3088C23.5781 18.871 24.2364 19.2145 24.9455 19.245C25.1158 19.245 25.2835 19.1763 25.4055 19.0542C25.5275 18.9321 25.5961 18.7667 25.5961 18.5937C25.5961 18.4207 25.5275 18.2554 25.4055 18.1333C25.2835 18.0112 25.1158 17.9425 24.9455 17.9425C24.0991 17.9425 23.1486 16.3805 23.1486 14.1519V4.35758C23.1359 3.32475 23.6467 2.35293 24.5032 1.77546C25.3597 1.19543 26.4501 1.08857 27.4031 1.48544C28.3562 1.88485 29.0449 2.7371 29.2381 3.75216C29.4287 4.76976 29.0958 5.81536 28.3536 6.53273C28.2291 6.6523 28.1554 6.81766 28.1554 6.98811C28.1554 7.1611 28.2291 7.32646 28.3536 7.44602C28.4706 7.57068 28.6357 7.64191 28.8086 7.64191C28.9814 7.64191 29.1466 7.57067 29.2635 7.44602C30.0971 6.63448 30.5673 5.52024 30.5648 4.3576V4.16172C30.913 4.10066 31.2662 4.06504 31.6195 4.05741C33.4927 4.0396 35.2743 4.85371 36.4892 6.27835C37.704 7.70552 38.2225 9.59829 37.9048 11.4427C37.0585 11.4249 36.2249 11.6564 35.5107 12.1092C35.2311 12.3101 35.1574 12.6968 35.3429 12.9894C35.531 13.2794 35.9122 13.3736 36.2121 13.2031C37.366 12.4577 38.8731 12.5697 39.8999 13.4804C40.9292 14.3911 41.2241 15.8743 40.6243 17.1107C40.2481 17.8815 39.5695 18.4615 38.7512 18.7108C38.4106 18.8177 38.22 19.1789 38.3216 19.5198C38.3979 19.7997 38.6546 19.993 38.9469 19.9879H39.1298H39.1273C39.5619 19.8404 39.9737 19.6343 40.3523 19.3774C42.8812 20.573 44.2384 23.3714 43.6131 26.1036C42.9854 28.8333 40.548 30.7591 37.7498 30.7337C37.3889 30.7337 37.0991 31.0263 37.0991 31.385C37.0991 31.5579 37.1678 31.7233 37.2898 31.8454C37.4118 31.9675 37.577 32.0362 37.7498 32.0362C38.436 32.0362 39.1197 31.937 39.7779 31.736C41.036 32.9851 41.4147 34.8677 40.7387 36.506C40.0626 38.1418 38.464 39.2077 36.6951 39.2001C36.2961 39.2154 35.897 39.1721 35.5107 39.0703C33.6275 38.531 32.3287 36.8112 32.3237 34.8498C32.311 34.6463 32.311 34.4428 32.3237 34.2367C32.3491 34.0663 32.3059 33.8933 32.2042 33.7534C32.1 33.6134 31.9475 33.5219 31.7772 33.4964C31.6044 33.4684 31.4316 33.5117 31.2918 33.616C31.152 33.7177 31.0605 33.8704 31.0351 34.0434C30.9919 34.3105 30.9716 34.5802 30.969 34.8498C30.9792 37.1954 32.4253 39.2967 34.6136 40.1388C34.545 43.3112 31.9196 45.8272 28.7503 45.7585C25.581 45.6898 23.0674 43.0644 23.136 39.892L23.1486 18.3088ZM4.6972 19.3519V19.3493C5.07589 19.6088 5.4876 19.8149 5.91968 19.9624H6.10268C6.39241 19.9675 6.64911 19.7742 6.7279 19.4943C6.82956 19.1509 6.63641 18.7922 6.29837 18.6853C5.10641 18.3088 4.2626 17.2455 4.16858 15.9989C4.07454 14.7498 4.74551 13.5719 5.86889 13.0199C6.82194 12.562 7.94279 12.6332 8.83488 13.203C9.12462 13.2997 9.44485 13.1827 9.60244 12.9181C9.75747 12.6535 9.70918 12.3177 9.48553 12.1091C8.75863 11.6487 7.91229 11.4171 7.05325 11.4426C6.73301 9.58801 7.25912 7.68769 8.48413 6.25797C9.70915 4.83079 11.5085 4.02433 13.3893 4.05742C13.7426 4.06505 14.0959 4.10067 14.4441 4.16173V4.35761C14.4416 5.52025 14.9117 6.63449 15.7454 7.44603C15.8623 7.57069 16.0275 7.64192 16.2003 7.64192C16.3731 7.64192 16.5383 7.57068 16.6552 7.44603C16.7823 7.32647 16.8535 7.1611 16.8535 6.98812C16.8535 6.81767 16.7823 6.65231 16.6552 6.53274C15.9258 5.81277 15.6056 4.77739 15.8013 3.77249C15.9944 2.76505 16.6807 1.92304 17.6236 1.5287C18.569 1.13438 19.6492 1.23868 20.5006 1.80854C21.3521 2.37585 21.8629 3.33236 21.8603 4.35765V27.2691C21.2504 26.4347 20.2922 25.9258 19.2578 25.8902C18.8994 25.8902 18.6072 26.1802 18.6072 26.5415C18.6072 26.7119 18.6758 26.8798 18.7978 27.0019C18.9198 27.1241 19.085 27.1927 19.2578 27.1927C20.676 27.1927 21.8603 29.0677 21.8603 31.2962V39.8134C21.7968 42.8892 19.3214 45.3695 16.2461 45.4357C13.1733 45.5018 10.5936 43.1308 10.3954 40.0602C12.5786 39.213 14.0196 37.1143 14.0273 34.7712C14.0247 34.5016 14.0044 34.2319 13.9612 33.9648C13.9027 33.6112 13.5749 33.3695 13.2191 33.4178C13.0488 33.4433 12.8963 33.5348 12.7921 33.6748C12.6904 33.8147 12.6472 33.9902 12.6726 34.1607C12.6853 34.3642 12.6853 34.5677 12.6726 34.7712C12.7031 36.7606 11.3968 38.5236 9.48555 39.0706C9.09669 39.1876 8.69256 39.2436 8.28851 39.241C6.51956 39.2461 4.92094 38.1802 4.24493 36.5444C3.56632 34.9061 3.94757 33.0236 5.20566 31.777C5.86391 31.9754 6.5476 32.0772 7.23383 32.0772C7.40666 32.0772 7.57185 32.0085 7.69385 31.8864C7.81584 31.7643 7.88446 31.5964 7.88446 31.4259C7.88446 31.2529 7.81584 31.0876 7.69385 30.9655C7.57185 30.8433 7.40665 30.7747 7.23383 30.7747C4.43557 30.8001 1.99568 28.8717 1.37049 26.142C0.745262 23.4123 2.10245 20.6139 4.63128 19.4158L4.6972 19.3519Z" fill="white" fill-opacity="0.6"/>
<path d="M16.2385 32.2573C16.5054 32.9136 16.5054 33.6463 16.2385 34.3027C16.1699 34.4629 16.1673 34.641 16.2309 34.8038C16.2944 34.9641 16.4189 35.0938 16.5765 35.1625C16.6629 35.1803 16.7519 35.1803 16.8383 35.1625C17.0975 35.1625 17.3314 35.0099 17.4356 34.7708C18.165 33.0281 17.5677 31.0107 16.0072 29.9448C14.4467 28.8763 12.3525 29.0544 10.9953 30.3696C10.8733 30.4892 10.8047 30.6545 10.8047 30.825C10.8047 30.9954 10.8733 31.1608 10.9953 31.2804C11.1173 31.405 11.2825 31.4737 11.4579 31.4737C11.6307 31.4737 11.7959 31.405 11.9179 31.2804C12.5584 30.6545 13.4657 30.39 14.3425 30.5732C15.2169 30.7563 15.9437 31.3643 16.2792 32.1937L16.2385 32.2573Z" fill="white" fill-opacity="0.6"/>
<path d="M15.8986 12.4477C16.229 12.4477 16.5568 12.4045 16.8745 12.318C17.3447 12.2188 17.7869 12.0229 18.1758 11.743C19.1975 11.0562 19.8329 9.9266 19.8939 8.69532C19.9193 8.33662 19.8913 7.97789 19.8151 7.62686C19.7388 7.28088 19.3957 7.05955 19.0475 7.13333C18.8773 7.16385 18.7273 7.26307 18.6307 7.40807C18.5341 7.55309 18.5011 7.73116 18.5418 7.90161C18.5723 8.1382 18.5723 8.37988 18.5418 8.6165C18.5087 9.44582 18.0818 10.2116 17.3955 10.6746C17.1388 10.8552 16.8517 10.9824 16.5492 11.0537C15.4639 11.3335 14.3202 10.9138 13.6747 9.99791C13.5781 9.85545 13.4307 9.75624 13.2604 9.72316C13.0927 9.69263 12.9173 9.73079 12.775 9.83C12.6326 9.92668 12.5335 10.0793 12.5005 10.2498C12.47 10.4202 12.5081 10.5983 12.6072 10.7408C13.357 11.8168 14.5872 12.4553 15.8986 12.4477Z" fill="white" fill-opacity="0.6"/>
<path d="M7.12837 23.9993C7.47911 24.1036 7.84258 24.157 8.20856 24.157C8.70162 24.1468 9.18705 24.0451 9.63944 23.8568C9.65977 24.7803 9.92918 25.6809 10.4222 26.4619C10.5417 26.645 10.7475 26.7595 10.9687 26.7621C11.0932 26.7646 11.2152 26.729 11.3194 26.6578C11.6218 26.4619 11.7082 26.0599 11.5151 25.7572C10.9839 24.9176 10.806 23.9026 11.0195 22.9308C11.1593 22.8011 11.2914 22.6637 11.4109 22.5136C11.7032 22.1244 11.9192 21.6818 12.0488 21.2111C12.3919 20.0307 12.1606 18.7587 11.4236 17.7742C11.2177 17.4842 10.9737 17.2247 10.6942 17.0059C10.562 16.894 10.3917 16.8405 10.2189 16.8583C10.0486 16.8762 9.89102 16.9601 9.78428 17.0975C9.55808 17.3773 9.59874 17.7895 9.87577 18.021C10.0664 18.1711 10.2367 18.3466 10.3815 18.5425C10.8949 19.2192 11.0449 20.1045 10.7856 20.9135C10.7069 21.2213 10.5645 21.5088 10.3688 21.7606C9.70551 22.6587 8.55414 23.053 7.48163 22.7502C7.12073 22.651 6.7522 22.8647 6.65311 23.226C6.55653 23.5847 6.77002 23.9536 7.12838 24.0527L7.12837 23.9993Z" fill="white" fill-opacity="0.6"/>
<path d="M17.9825 37.7664C17.5886 38.9926 16.3864 39.771 15.108 39.6286C14.7522 39.5904 14.4319 39.8474 14.3913 40.201C14.3709 40.374 14.4192 40.547 14.526 40.6818C14.6353 40.8167 14.7928 40.9031 14.9657 40.9184C15.1156 40.9311 15.2681 40.9311 15.4206 40.9184C17.1666 40.9464 18.7195 39.8067 19.2202 38.1302C19.271 37.9674 19.2558 37.7893 19.1744 37.6367C19.0931 37.4841 18.9559 37.3721 18.7907 37.3238C18.6255 37.2704 18.445 37.2882 18.2925 37.3721C18.14 37.4561 18.0283 37.5985 17.9825 37.7664Z" fill="white" fill-opacity="0.6"/>
<path d="M18.7363 19.0779C17.801 18.0069 17.773 16.4169 18.6727 15.3128C18.8024 15.183 18.871 15.005 18.8634 14.8193C18.8532 14.6361 18.7668 14.4656 18.6244 14.3486C18.4821 14.2316 18.2966 14.1807 18.1161 14.2087C17.9331 14.2367 17.7705 14.3384 17.6688 14.4936C16.7843 15.5875 16.5022 17.0529 16.9166 18.4012C16.6421 18.3732 16.3676 18.3732 16.0956 18.4012C15.9228 18.4165 15.7627 18.5004 15.6534 18.6352C15.5441 18.7701 15.4908 18.9431 15.5111 19.1161C15.5518 19.4671 15.8593 19.7266 16.2125 19.7037C17.8035 19.5511 19.2167 20.7162 19.3742 22.3088C19.4073 22.642 19.6894 22.8964 20.0249 22.8939C20.1977 22.8786 20.3578 22.7921 20.4671 22.6573C20.5764 22.5225 20.6298 22.3495 20.612 22.1765C20.5103 21.0699 19.9715 20.0472 19.115 19.3374C19.0235 19.2585 18.8811 19.1822 18.7363 19.0779Z" fill="white" fill-opacity="0.6"/>
<path d="M31.6057 29.7188C30.5662 29.7188 29.5674 30.1258 28.8202 30.8508C28.0653 31.5861 27.6384 32.596 27.6358 33.6518C27.6333 33.8248 27.6994 33.9927 27.8188 34.1173C27.9383 34.242 28.1009 34.3132 28.2737 34.3158C28.6321 34.3081 28.9193 34.0207 28.9244 33.6645C28.9244 32.9573 29.2116 32.2806 29.7199 31.7896C30.2079 31.2655 30.9043 30.9857 31.6185 31.0213C32.7088 31.0086 33.6898 31.6802 34.0787 32.7003C34.2159 33.0361 34.5971 33.1964 34.9301 33.059C35.2656 32.9216 35.4257 32.54 35.2884 32.2068C34.681 30.7058 33.2247 29.7213 31.6057 29.7188Z" fill="white" fill-opacity="0.6"/>
<path d="M26.8302 11.7176C27.2216 11.9949 27.6638 12.1908 28.1315 12.29C28.4593 12.3715 28.7948 12.4172 29.1329 12.4198C30.4392 12.4351 31.6642 11.794 32.3987 10.7153C32.4979 10.5728 32.5385 10.3948 32.5055 10.2243C32.4724 10.0513 32.3733 9.90123 32.231 9.80201C32.0887 9.70279 31.9158 9.66718 31.7456 9.6977C31.5778 9.73077 31.4279 9.82998 31.3313 9.97245C30.6832 10.8934 29.5319 11.3131 28.4441 11.0282C28.1442 10.9544 27.8621 10.8247 27.6105 10.6492C26.9065 10.204 26.4567 9.45096 26.4007 8.6165C26.3677 8.37991 26.3677 8.13822 26.4007 7.90161C26.4388 7.73116 26.4058 7.55308 26.3118 7.40807C26.2152 7.26306 26.0652 7.16385 25.8924 7.13333C25.5442 7.05955 25.2036 7.28088 25.1248 7.62686C25.0486 7.97284 25.0232 8.32899 25.0486 8.68262C25.1274 9.91898 25.7881 11.046 26.8302 11.7176Z" fill="white" fill-opacity="0.6"/>
<path d="M33.6097 22.6593C33.7444 22.8119 33.8943 22.9493 34.0544 23.0765C34.3111 24.0279 34.1993 25.043 33.7418 25.9156C33.6579 26.0683 33.6376 26.2463 33.6884 26.4117C33.7367 26.5796 33.8486 26.717 34.0011 26.8009C34.0976 26.8518 34.2044 26.8772 34.3137 26.8798C34.5526 26.8823 34.7737 26.7526 34.8855 26.5414C35.3379 25.7248 35.5539 24.8013 35.5107 23.8702C35.892 23.9974 36.291 24.0661 36.6951 24.0788C37.1399 24.0737 37.5796 23.9898 37.9964 23.8321C38.3293 23.7023 38.4971 23.3309 38.3725 22.9977C38.2505 22.6593 37.8795 22.4838 37.5415 22.6059C36.4816 22.9926 35.2922 22.6695 34.5729 21.7994C34.3722 21.5705 34.2171 21.3059 34.118 21.0184C33.8333 20.2349 33.9248 19.3648 34.3645 18.6601C34.5018 18.4617 34.6593 18.2785 34.8347 18.1132C35.0965 17.8639 35.1092 17.4518 34.8601 17.1872C34.6111 16.9251 34.1993 16.9149 33.935 17.1617C33.6783 17.3983 33.4546 17.6705 33.2717 17.9707C32.6058 19.0112 32.4711 20.3035 32.9082 21.4611C33.0633 21.9012 33.3021 22.3083 33.6097 22.6593Z" fill="white" fill-opacity="0.6"/>
<path d="M29.8886 39.6552C28.6001 39.8052 27.3877 39.0115 27.0141 37.7675C26.9633 37.6047 26.8489 37.4673 26.6964 37.391C26.5465 37.3122 26.3686 37.2969 26.2059 37.3503C26.0407 37.3987 25.9035 37.5106 25.8221 37.6632C25.7408 37.8159 25.7256 37.994 25.7764 38.1593C26.2771 39.8333 27.8299 40.973 29.576 40.945C29.7285 40.9602 29.881 40.9602 30.0309 40.945C30.2037 40.9297 30.3613 40.8432 30.4706 40.7084C30.5774 40.5735 30.6256 40.4005 30.6053 40.2301C30.5646 39.8739 30.2445 39.617 29.8886 39.6552Z" fill="white" fill-opacity="0.6"/>
<path d="M31.3486 16.9272C30.4387 15.2431 28.4588 14.4443 26.6365 15.0243C26.296 15.1311 26.1053 15.4924 26.207 15.8333C26.2553 16.0012 26.3697 16.1437 26.5247 16.2251C26.6797 16.3065 26.8627 16.3192 27.0279 16.2632C28.258 15.8816 29.5847 16.4286 30.1896 17.5657C30.3091 17.7718 30.5251 17.899 30.7615 17.9041C30.8708 17.9041 30.9775 17.8761 31.0741 17.8252C31.2291 17.7438 31.346 17.6014 31.3969 17.4335C31.4477 17.2656 31.4299 17.0824 31.3486 16.9272Z" fill="white" fill-opacity="0.6"/>
<path d="M26.011 28.5578H26.077C26.41 28.5527 26.6896 28.3034 26.7277 27.9727C26.8776 26.3827 28.2882 25.215 29.8766 25.3677C30.2324 25.3906 30.545 25.1336 30.5934 24.78C30.6112 24.607 30.5578 24.434 30.4485 24.3017C30.3392 24.1669 30.1791 24.0804 30.0063 24.0651C29.7292 24.0321 29.4497 24.0321 29.1752 24.0651C29.5971 22.7168 29.315 21.2489 28.4203 20.1575C28.3111 20.0227 28.156 19.9362 27.9832 19.9184C27.8104 19.9006 27.6401 19.954 27.5079 20.066C27.2334 20.2924 27.1928 20.6994 27.4164 20.9767C28.3288 22.0808 28.3009 23.6835 27.3529 24.7545C26.2676 25.449 25.5611 26.5989 25.4264 27.8811C25.4112 28.2271 25.6678 28.5247 26.011 28.5578Z" fill="white" fill-opacity="0.6"/>
</svg>
