<svg viewBox="0 0 46 51" fill="none" xmlns="http://www.w3.org/2000/svg">
    <g clip-path="url(#clip0_44_2891)">
        <path d="M45.9913 48.3199C45.8981 46.7843 45.0747 46.3458 43.6085 46.4926L43.6145 20.4845C43.7633 2.87461 21.4752 -6.85884 8.79152 5.676C8.4344 6.02915 8.04356 6.40214 8.30148 6.9656C8.85501 8.18377 10.5354 6.11843 11.0751 5.68196C13.0472 4.08881 15.3446 2.96191 17.7592 2.21196V7.56079C9.36291 10.6578 6.33336 21.5439 11.5374 28.7915C12.1405 29.6307 12.8468 30.3806 13.5967 31.0889C13.7574 31.2417 14.3249 31.5829 14.3963 31.702C14.561 31.9797 14.4538 32.4222 14.5133 32.7495C14.6264 33.3765 15.5907 34.3089 16.2235 34.3089H17.7592V38.8662C6.23614 35.9993 0.530189 22.034 6.1171 11.62C6.36907 11.1498 7.35908 9.80865 7.43646 9.47138C7.62295 8.65794 6.7004 8.1798 6.07346 8.90197C3.73036 11.5982 2.53799 16.9947 2.40109 20.4845L2.40506 46.4926C1.15713 46.3617 0.206799 46.6732 0.0381602 48.0381C-0.108655 49.2385 0.121488 50.6471 1.5579 50.7542L44.549 50.7503C45.8306 50.5677 46.0568 49.4309 45.9893 48.3179L45.9913 48.3199ZM28.2564 2.21196C33.1152 3.64837 37.3391 7.00329 39.7636 11.4573C44.166 19.5441 42.1166 29.8668 34.883 35.537C32.9565 37.0468 30.6531 38.3106 28.2564 38.8662V34.3089H29.792C30.3833 34.3089 31.3515 33.4062 31.4824 32.8309C31.5637 32.4777 31.4507 31.9877 31.6193 31.704C31.6907 31.5849 32.2581 31.2437 32.4188 31.0909C33.1688 30.3826 33.8771 29.6327 34.4782 28.7934C39.6763 21.5539 36.6547 10.6638 28.2564 7.56278V2.21196ZM35.5873 21.3297C35.3631 24.5021 33.9723 27.6527 31.5776 29.7517C31.4784 29.7537 31.5459 28.8768 31.5201 28.7161C31.4784 28.4502 31.1848 28.1586 31.2423 27.9383C31.2701 27.8352 32.3077 26.5357 32.4982 26.2143C33.3712 24.7382 33.9168 23.0538 34.0021 21.3297H35.5873ZM31.3316 13.356L32.3812 12.3224C32.6411 12.2767 33.5795 13.737 33.7461 14.0068C34.8334 15.7864 35.4504 17.7545 35.5873 19.8437H34.0021C33.8771 17.449 32.891 15.1476 31.3316 13.356ZM31.3257 11.1776L30.2027 12.2093C28.3933 10.6558 26.1673 9.7908 23.8004 9.5428V8.05679C26.5284 8.11433 29.3456 9.32654 31.3257 11.1776ZM19.2432 1.81516C21.5089 1.52153 23.8302 1.33305 26.0979 1.74572C26.33 1.78739 26.6196 1.7854 26.7724 1.96396V6.9656C24.2607 6.34461 21.7569 6.34461 19.2452 6.9656V1.81516H19.2432ZM22.2152 8.05679V9.5428C19.8483 9.7908 17.6203 10.6558 15.8129 12.2093L14.6899 11.1776C16.6719 9.32654 19.4872 8.11433 22.2152 8.05679ZM12.2695 14.0088C12.4341 13.737 13.3745 12.2787 13.6344 12.3244L14.684 13.358C13.1146 15.1476 12.1405 17.453 12.0135 19.8457H10.4283C10.5632 17.7565 11.1822 15.7884 12.2695 14.0088ZM14.4955 28.7161C14.4697 28.8748 14.5372 29.7537 14.438 29.7517C12.0373 27.6546 10.6525 24.506 10.4283 21.3297H12.0135C12.0988 23.0796 12.6583 24.7818 13.5571 26.2738C13.7416 26.5793 14.7475 27.8372 14.7732 27.9364C14.8308 28.1586 14.5372 28.4502 14.4955 28.7141V28.7161ZM15.2335 26.0853C10.1327 18.7882 16.8425 9.05275 25.584 11.376C31.7661 13.0187 34.7203 20.9686 30.7364 26.0853C30.8813 24.4584 30.3317 23.7164 28.7088 23.6033C24.9293 23.3414 20.8403 23.7978 17.029 23.6192C15.5192 23.7779 15.2177 24.6945 15.2335 26.0833V26.0853ZM29.2484 25.0953V27.0773H16.7672V25.0953H29.2484ZM16.4418 32.8011C16.2196 32.7297 16.0232 32.6206 15.9775 32.3745C15.8922 31.9262 15.9041 29.595 15.9716 29.1029C16.0232 28.724 16.1938 28.6744 16.545 28.5871L29.552 28.6069C29.794 28.6764 29.9865 28.7399 30.0381 29.0117C30.0956 29.3113 30.0896 32.2257 30.0202 32.4579C29.9785 32.5987 29.8377 32.6821 29.7167 32.7495L16.4418 32.8031V32.8011ZM14.5887 49.2662H1.51425V47.9786H14.5887V49.2662ZM14.5887 46.4926H3.89107V28.3649L5.16082 30.8092C7.88484 35.5053 12.4698 39.0824 17.7453 40.4633C17.6778 41.4711 17.8782 42.6913 17.7631 43.6753C17.7453 43.8202 17.7512 43.9293 17.6104 44.0166H16.0251C15.1958 44.0166 14.3011 45.707 14.5887 46.4926ZM29.9408 49.2662H16.0747V45.7486C16.0747 45.6236 16.3842 45.5145 16.5152 45.4966C17.6441 45.3439 20.5109 45.7744 21.3482 45.3776C21.9731 45.082 21.7113 44.0166 21.2748 44.0166H19.2452V34.3089H26.7724V44.0166H24.1476C24.1218 44.0166 23.8976 44.2567 23.8579 44.3221C23.5643 44.8102 23.852 45.334 24.3877 45.459C25.7626 45.7823 28.0303 45.2982 29.5004 45.4966C29.6313 45.5145 29.9408 45.6236 29.9408 45.7486V49.2662ZM29.9904 44.0166H28.4052C28.2644 43.9293 28.2683 43.8182 28.2525 43.6753C28.1374 42.6933 28.3378 41.4731 28.2703 40.4633C33.5517 39.0903 38.1228 35.4973 40.8548 30.8092L42.1245 28.3649V46.4926H31.4269C31.7145 45.705 30.8198 44.0166 29.9904 44.0166ZM44.5013 49.2662H31.4269V47.9786H44.5013V49.2662Z" fill="#BABABA"/>
        <path d="M39.2506 19.5928C40.6156 20.5789 41.0441 17.1704 39.5185 17.4838C38.7645 17.6386 38.7526 19.2357 39.2506 19.5928Z" fill="#BABABA"/>
        <path d="M39.5186 21.4499C38.7766 21.6145 38.7687 23.166 39.1972 23.5132C40.5919 24.6421 41.078 21.1027 39.5186 21.4499Z" fill="#BABABA"/>
        <path d="M38.5882 43.4335C39.8182 43.4335 40.8161 42.4356 40.8161 41.2036C40.8161 39.9716 39.8182 38.9736 38.5882 38.9736C37.3582 38.9736 36.3604 39.9716 36.3604 41.2036C36.3604 42.4356 37.3582 43.4335 38.5882 43.4335ZM38.5962 40.4517C39.0088 40.4517 39.3421 40.785 39.3421 41.1976C39.3421 41.6103 39.0088 41.9436 38.5962 41.9436C38.1835 41.9436 37.8502 41.6103 37.8502 41.1976C37.8502 40.785 38.1835 40.4517 38.5962 40.4517Z" fill="#BABABA"/>
    </g>
</svg>
