<svg width="45" height="48" viewBox="0 0 45 48" fill="none" xmlns="http://www.w3.org/2000/svg">
<path d="M44.7089 42.944C44.2915 42.4814 43.7182 42.2272 43.125 42.2417C43.0042 42.2247 42.8812 42.2078 42.756 42.186C37.8066 41.3505 30.8426 37.2506 30.7397 32.4627L31.0516 7.13209H31.0494C31.0692 5.42481 30.4651 3.78051 29.3689 2.57204C28.2595 1.32247 26.7393 0.620189 25.1511 0.625025H0.615127C0.274625 0.625025 0 0.927734 0 1.30313V17.3685C0 17.5574 0.0724958 17.7366 0.197709 17.865C0.322928 17.9933 0.492079 18.0587 0.66343 18.0442C7.8821 17.4194 13.6751 16.0487 18.3192 13.8619C16.5904 21.6597 17.9743 24.7353 19.3122 27.7141C20.3095 29.9299 21.2497 32.0247 21.0718 36.1293V36.1923H21.074C20.9949 37.207 20.7401 38.1975 20.3249 39.1104C19.6088 41.0502 18.7937 43.2491 20.0371 45.1888C22.2493 48.6446 26.7789 47.1189 28.6421 46.2907C29.7668 45.8814 30.9794 46.2858 32.3832 46.7556C33.7232 47.2763 35.1247 47.5693 36.5438 47.625C37.394 47.625 38.2397 47.487 39.0525 47.2157C39.5732 47.0753 40.1202 47.0898 40.6342 47.2569C41.6689 47.6008 42.7893 47.441 43.7119 46.8186C44.4325 46.218 44.8895 45.3099 44.9663 44.317C45.0564 43.8399 44.9637 43.3435 44.7089 42.944ZM43.7446 44.133V44.1355C43.7116 44.7506 43.4436 45.3245 43.0042 45.7096C42.3584 46.097 41.5961 46.1794 40.8931 45.9348C40.177 45.7168 39.4191 45.712 38.7008 45.9178C36.3897 46.6758 34.5334 46.0559 32.7385 45.4577C31.7411 45.063 30.6976 44.8281 29.641 44.7651C29.1621 44.7603 28.6854 44.845 28.2307 45.0121L28.1955 45.0266C26.6138 45.7313 22.7497 47.0826 21.0382 44.4067C20.188 43.0724 20.8075 41.3965 21.4621 39.6239C21.952 38.5462 22.2376 37.3717 22.3035 36.1706C22.4902 31.7316 21.4358 29.3852 20.4143 27.1162C19.0435 24.0673 17.7495 21.1879 19.8167 12.9007C19.8233 12.8935 19.8277 12.8862 19.8299 12.8765C20.0782 12.3026 20.3286 11.731 20.5812 11.1571C20.7284 10.8205 20.5988 10.4161 20.2934 10.2539C19.9903 10.0916 19.6234 10.2321 19.474 10.5663C19.2434 11.0942 19.0105 11.6245 18.782 12.1525C14.2544 14.4821 8.50572 15.9521 1.22969 16.635V1.98124H25.1504C26.4091 1.97882 27.613 2.53581 28.4939 3.52629C29.355 4.47555 29.8339 5.77119 29.8186 7.11524L29.5066 32.4582V32.4824C29.5725 35.834 32.1142 38.3792 34.2363 39.9218H34.2385C36.7648 41.7333 39.6009 42.961 42.5707 43.5302C42.7091 43.5544 42.8431 43.5713 42.9749 43.5931V43.5907C43.2363 43.6028 43.4933 43.6658 43.735 43.7772C43.735 43.7772 43.7811 43.8522 43.746 44.1356L43.7446 44.133ZM25.14 35.7953C24.5403 36.4564 24.5425 36.982 25.1466 37.6721L25.1488 37.6745C25.2674 37.8029 25.3333 37.9772 25.3311 38.1588C25.3311 38.3429 25.263 38.5173 25.1444 38.6432C25.0258 38.7715 24.8654 38.8393 24.6985 38.8345C24.5337 38.8296 24.3777 38.7497 24.2635 38.6165C23.1959 37.3985 23.1959 36.0205 24.2701 34.8339C24.5117 34.5772 24.8962 34.5796 25.1356 34.8411C25.3729 35.1027 25.3751 35.5289 25.14 35.7929L25.14 35.7953ZM27.6971 5.72768C28.1628 6.74236 28.2529 7.91444 27.9475 8.99935C27.8662 9.36502 27.5345 9.58782 27.2028 9.50064C26.8733 9.41103 26.6712 9.04536 26.7503 8.68212C27.1721 6.75928 26.6031 5.6792 24.9028 5.19006V5.18763C24.5754 5.09319 24.3777 4.72267 24.4656 4.35944C24.5513 3.99861 24.8874 3.78066 25.2169 3.87753C26.2384 4.09306 27.1347 4.76143 27.6971 5.72768Z" fill="white" fill-opacity="0.6"/>
</svg>
