<svg width="45" height="48" viewBox="0 0 45 48" fill="none" xmlns="http://www.w3.org/2000/svg">
<path d="M2.03838 37.3271C7.05817 37.7129 12.0354 38.6574 16.7569 40.0777C18.2972 40.5407 20.8239 41.6927 22.3552 41.6431C23.6779 41.6009 26.7763 40.2981 28.2516 39.8719C33.0045 38.4957 37.9772 37.6339 42.9993 37.2352C42.5217 34.5765 42.015 31.8039 40.3582 29.4502C39.2395 29.757 38.1611 30.1649 37.0423 30.4718C31.5002 31.9895 25.3796 32.6693 19.5527 32.3716C18.6626 32.3257 17.0417 32.2357 16.2166 32.0777C15.3423 31.9105 15.2122 30.8172 16.3018 30.718C17.1784 30.6372 18.703 30.9458 19.6625 30.9936C23.0412 31.1645 26.6844 30.9771 30.0339 30.5067C33.3834 30.0363 36.5536 29.2573 39.5915 28.153L39.5533 27.9031C37.4661 24.627 34.7555 21.52 33.9641 17.8011C33.8677 17.3436 33.657 16.4194 33.6996 15.995C33.7803 15.1976 35.0672 15.0818 35.334 15.7598C35.5671 16.3533 35.5895 17.4392 35.7734 18.1502C36.8809 22.424 41.1676 26.8319 43.0777 31.1535C44.9498 35.396 45.4049 42.1649 44.6583 46.6225C44.479 47.6918 43.4454 48.0501 42.9006 46.9771C43.275 44.2063 43.3356 41.3859 43.1046 38.6059C38.4458 38.9844 33.8184 39.7524 29.3905 40.989C27.2584 41.5843 25.2473 42.4552 23.0771 42.9219C22.9044 43.0671 23.1802 46.3983 23.0659 46.9954C22.9134 47.7947 21.5525 47.7947 21.4001 46.9954C21.1871 45.8801 21.5727 44.3698 21.4001 43.2343C21.3328 42.7952 20.6266 42.865 20.1311 42.7143C18.5931 42.2476 17.0955 41.6303 15.5194 41.1727C11.161 39.9068 6.59632 39.0671 1.98233 38.6923C1.89938 38.7051 1.81419 39.2637 1.80073 39.3831C1.66846 40.7538 1.73796 42.6684 1.80073 44.0685C1.83661 44.8843 2.1886 46.176 2.13703 46.9036C2.11909 47.1626 1.8254 47.5173 1.50031 47.5779C0.61473 47.7414 0.446581 47.1057 0.352418 46.5398C-0.528678 41.272 0.226868 34.176 2.79393 29.2775C5.06281 24.9468 9.23961 21.0533 9.63868 16.1732C10.0624 11.0028 7.70834 6.00509 4.73996 1.56596C4.44851 0.814463 5.58295 0.270595 6.21967 0.902658C6.53578 1.21501 7.22856 2.44239 7.49535 2.8852C10.3135 7.55217 12.2708 13.1875 10.9032 18.4056C9.97497 21.95 7.29357 24.8916 5.38789 28.0942C7.75542 29.0772 10.3606 29.6156 12.9142 30.1833C13.5016 30.4259 13.459 31.2012 12.8806 31.3997C12.3021 31.5981 10.1454 31.0028 9.43914 30.8301C7.88097 30.4497 6.34298 29.9739 4.8543 29.4428C4.76014 29.4171 4.68391 29.4263 4.59872 29.4704C4.4642 29.5421 3.94855 30.5673 3.84317 30.7805C2.81635 32.8567 2.39037 35.1094 2.02717 37.3179L2.03838 37.3271Z" fill="white" fill-opacity="0.6"/>
<path d="M39.2779 0.649263C39.9505 0.537182 40.5087 1.03328 40.289 1.57531C38.2219 4.60517 36.6009 7.84081 35.7624 11.2584C35.6279 11.8096 35.6459 13.1876 35.0271 13.4081C34.1527 13.7186 33.7918 13.1509 33.8254 12.5151C33.9644 9.83805 35.8858 5.70025 37.3094 3.26203C37.6749 2.63732 38.3026 1.49446 38.7645 0.968969C38.8967 0.818303 39.0469 0.689686 39.2779 0.649263Z" fill="white" fill-opacity="0.6"/>
<path d="M22.519 28.2576C22.9771 28.2576 23.3485 27.9532 23.3485 27.5778C23.3485 27.2023 22.9771 26.8979 22.519 26.8979C22.0608 26.8979 21.6895 27.2023 21.6895 27.5778C21.6895 27.9532 22.0608 28.2576 22.519 28.2576Z" fill="white" fill-opacity="0.6"/>
</svg>
