<svg width="45" height="47" viewBox="0 0 45 47" fill="none" xmlns="http://www.w3.org/2000/svg">
<path d="M36.4824 28.3517C38.4085 28.6237 40.7417 29.4375 42.9653 30.6757C43.1939 30.8041 43.4726 30.8672 43.7482 30.8672C44.1146 30.8672 44.481 30.754 44.7254 30.5408C45.1576 30.1643 45.0699 29.6182 44.5312 29.3179C42.0101 27.9165 39.3762 27.0048 37.0587 26.661C37.2967 26.1692 38.0139 25.8428 38.8125 25.919C39.9525 26.0169 41.6844 25.919 43.4977 24.8897C43.5823 24.8419 43.6543 24.7875 43.717 24.7265C45.1388 23.3578 45.3925 21.7367 44.3997 20.3854C43.4539 19.1016 41.5748 18.3051 39.4984 18.3051C39.4483 18.3051 39.3919 18.3073 39.3418 18.3117L36.9116 18.5227C35.8749 17.3956 35.2705 16.127 35.1421 14.7931C35.7215 14.4863 36.185 14.0881 36.4794 13.5941C38.4055 13.8661 40.7356 14.68 42.9623 15.9181C43.194 16.0465 43.4696 16.1096 43.7452 16.1096C44.1116 16.1096 44.478 15.9965 44.7224 15.7832C45.1546 15.4068 45.0669 14.8606 44.5282 14.5603C42.004 13.159 39.3701 12.2472 37.0557 11.9034C37.2937 11.4138 38.0109 11.0918 38.8095 11.1614C39.9495 11.2594 41.6814 11.1614 43.4915 10.1322C43.5761 10.0843 43.6513 10.0299 43.7139 9.96897C45.1357 8.60028 45.3894 6.97697 44.3966 5.62784C43.4508 4.344 41.5718 3.54758 39.4953 3.54758C39.4452 3.54758 39.3889 3.54975 39.3387 3.55411L36.8928 3.76735C36.0378 2.84253 35.4553 1.81114 35.2267 0.740541C35.1265 0.263997 34.4813 -0.0602248 33.8017 0.00940698C33.119 0.0790388 32.6461 0.522939 32.7495 0.99946C32.9718 2.04394 33.4698 3.06012 34.1839 4.00232L28.7345 4.47668C28.1175 4.52891 27.5194 4.65511 26.9556 4.85096L24.4751 5.71049C24.2434 5.791 23.9991 5.84105 23.7548 5.8911V0.871092C23.7548 0.390198 23.1942 0.00069477 22.5021 0.00069477C21.81 0.00069477 21.2494 0.390198 21.2494 0.871092V5.8911C21.0051 5.84105 20.7608 5.791 20.5291 5.71049L18.0486 4.85096C17.4849 4.65512 16.8867 4.52891 16.2697 4.47668L10.8141 4.00667C11.5313 3.06229 12.0292 2.04611 12.2547 1.00164C12.3581 0.525094 11.8852 0.0812169 11.2025 0.0115851C10.5166 -0.0667479 9.88086 0.263998 9.77752 0.742719C9.54889 1.81549 8.96014 2.84688 8.10516 3.77387L5.50888 3.54975C3.43252 3.54975 1.55652 4.34617 0.607579 5.63001C-0.38522 6.97914 -0.131534 8.6024 1.29031 9.97114C1.35295 10.0321 1.42811 10.0865 1.51267 10.1343C2.92822 10.9394 4.59753 11.3116 6.19469 11.1636C7.01206 11.0962 7.71359 11.416 7.9485 11.9056C5.63411 12.2472 3.00022 13.1611 0.472885 14.5625C-0.0689175 14.8628 -0.156612 15.4111 0.278711 15.7854C0.526121 15.9986 0.889415 16.1118 1.25588 16.1118C1.53147 16.1118 1.80707 16.0487 2.03883 15.9203C4.26238 14.6865 6.58936 13.8748 8.50914 13.5985C8.791 14.0903 9.26077 14.4972 9.86208 14.8062C9.73054 16.1379 9.12924 17.4043 8.0895 18.5293L5.50885 18.3074C3.4325 18.3074 1.55337 19.1038 0.607554 20.3876C-0.385245 21.7367 -0.131558 23.36 1.29029 24.7287C1.35292 24.7897 1.42809 24.8441 1.50952 24.8919C2.92507 25.6971 4.59751 26.0583 6.19474 25.9212C7.01212 25.8472 7.71365 26.1715 7.94856 26.6632C5.63104 27.0048 2.99715 27.9166 0.472941 29.3201C-0.0688609 29.6204 -0.15342 30.1687 0.278768 30.543C0.526178 30.7562 0.889471 30.8694 1.25593 30.8694C1.53153 30.8694 1.80713 30.8063 2.03888 30.6779C4.25931 29.4441 6.58629 28.6324 8.50607 28.3561C8.78793 28.8479 9.2577 29.2548 9.85901 29.5638C9.72747 30.8933 9.12617 32.1598 8.08956 33.2847L5.50578 33.0628C3.42943 33.0628 1.55343 33.8592 0.604483 35.1431C-0.388315 36.4922 -0.134629 38.1154 1.28721 39.4842C1.34985 39.5429 1.42502 39.5995 1.50644 39.6474C2.922 40.4525 4.58819 40.8181 6.18847 40.6766C7.00897 40.607 7.7105 40.9291 7.94541 41.4208C5.62789 41.7624 2.994 42.6742 0.46979 44.0777C-0.0720126 44.378 -0.156572 44.9263 0.275616 45.3006C0.523026 45.5138 0.88632 45.627 1.25278 45.627C1.52838 45.627 1.80398 45.5639 2.03573 45.4355C4.25616 44.2017 6.58314 43.3901 8.50604 43.1137C9.02905 44.0211 10.1565 44.7022 11.5909 44.8654L16.843 45.4747C17.4631 45.5465 18.0393 45.7053 18.5654 45.9512L19.4424 46.3559C20.3694 46.7868 21.4311 47 22.4928 47C23.5544 47 24.6161 46.7868 25.54 46.3581L26.4264 45.949C26.9463 45.7053 27.5256 45.5465 28.1457 45.4747L33.3946 44.8654C34.8071 44.7043 35.9157 44.0385 36.4669 43.1115C38.393 43.3835 40.7262 44.1973 42.9497 45.4355C43.1784 45.5639 43.4571 45.627 43.7327 45.627C44.0991 45.627 44.4655 45.5138 44.7099 45.3006C45.142 44.9241 45.0544 44.378 44.5157 44.0777C41.9946 42.6764 39.3607 41.7625 37.0432 41.4208C37.2781 40.9312 37.9796 40.6026 38.797 40.6766C39.937 40.7789 41.6688 40.681 43.4854 39.6474C43.5699 39.5995 43.6419 39.5429 43.7046 39.4842C45.1264 38.1155 45.3801 36.4922 44.3873 35.1431C43.4415 33.8592 41.5625 33.0628 39.486 33.0628C39.4359 33.0628 39.3795 33.065 39.3294 33.0693L36.8992 33.2804C35.8625 32.1532 35.2612 30.8846 35.1329 29.5529C35.7123 29.2461 36.1758 28.8479 36.4702 28.354L36.4824 28.3517ZM39.5704 20.0438C40.676 20.0634 41.6656 20.492 42.1698 21.1753C42.7148 21.9151 42.5707 22.7964 41.7815 23.6124C40.9265 24.0672 40.0214 24.263 39.1257 24.1912C36.8552 23.978 34.8007 25.0442 34.4843 26.5935L34.334 27.3203C34.2119 27.9078 33.7139 28.3082 32.9998 28.3909L27.7478 28.998C26.7738 29.1111 25.8624 29.3614 25.0482 29.74L24.1681 30.1491C24.0397 30.2078 23.8956 30.2383 23.7609 30.2818V22.4262C24.3936 22.3457 25.0168 22.2239 25.6025 22.0215L28.0829 21.1598C28.3836 21.0553 28.7124 20.9857 29.0506 20.9552L39.5735 20.0413L39.5704 20.0438ZM28.7341 19.23C28.114 19.2866 27.5158 19.4128 26.9615 19.6043L24.4811 20.466C24.2493 20.5465 24.005 20.5965 23.7607 20.6466V17.3543C24.3871 17.252 25.001 17.0975 25.5584 16.8386L26.4416 16.4295C26.9584 16.1879 27.5378 16.0291 28.1609 15.9573L32.7146 15.4285C32.9182 16.5949 33.4036 17.7177 34.1929 18.7556L28.7341 19.2278L28.7341 19.23ZM25.5991 7.26446L28.0795 6.40493C28.3864 6.2983 28.7121 6.23085 29.0472 6.20038L39.5701 5.28648C40.6725 5.30606 41.6653 5.73473 42.1695 6.41797C42.7145 7.15779 42.5704 8.03911 41.7812 8.85508C40.9262 9.31204 40.0211 9.50789 39.1254 9.43392C36.8549 9.22067 34.8004 10.2869 34.484 11.8362L34.3337 12.563C34.2116 13.1505 33.7136 13.5509 32.9995 13.6336L27.7475 14.2429C26.7703 14.3561 25.8621 14.6041 25.0478 14.9849L24.1678 15.394C24.0394 15.4527 23.8953 15.4832 23.7606 15.5289V7.67333C24.3932 7.59282 25.0165 7.47096 25.6021 7.2686L25.5991 7.26446ZM6.44464 9.40784C6.263 9.40784 6.07822 9.41437 5.89031 9.43178C5.00085 9.50576 4.08951 9.3121 3.23453 8.85294C2.44531 8.03914 2.30122 7.15565 2.84618 6.41583C3.3598 5.71734 4.38393 5.28434 5.35788 5.27777L15.9682 6.19819C16.3033 6.22648 16.629 6.29611 16.9359 6.40273L19.4163 7.26227C20.0019 7.46463 20.6252 7.58649 21.2578 7.667V15.5226C21.12 15.4791 20.976 15.4486 20.8507 15.3877L19.9737 14.9786C19.1595 14.6021 18.2481 14.3519 17.2741 14.2366L12.022 13.6273C11.3424 13.5489 10.8163 13.1747 10.7192 12.7003L10.5407 11.8277C10.2494 10.4068 8.50812 9.40146 6.45365 9.40146L6.44464 9.40784ZM12.298 15.429L16.8548 15.9578C17.4749 16.0318 18.0574 16.1885 18.5741 16.43L19.4542 16.8391C20.0117 17.098 20.6255 17.2525 21.2519 17.3548V20.6471C21.0076 20.5971 20.7633 20.547 20.5316 20.4665L18.0511 19.6048C17.4968 19.4133 16.8986 19.2871 16.2722 19.2305L10.8197 18.7605C11.6089 17.7225 12.0912 16.5976 12.2948 15.429L12.298 15.429ZM6.44464 24.1659C6.263 24.1659 6.07822 24.1724 5.89031 24.1898C5.00085 24.2638 4.08951 24.068 3.23453 23.611C2.44531 22.7972 2.30122 21.9137 2.84618 21.1739C3.3598 20.4754 4.38393 20.0424 5.35788 20.0358L15.9625 20.9562C16.3039 20.9867 16.6328 21.0541 16.9334 21.1608L19.4138 22.0225C19.9995 22.2248 20.6227 22.3467 21.2553 22.4272V30.2828C21.1175 30.2393 20.9735 30.2088 20.8482 30.1501L19.9713 29.741C19.1507 29.3623 18.2425 29.1099 17.2716 28.999L12.0196 28.3919C11.34 28.3136 10.8138 27.9393 10.7167 27.4627L10.5382 26.5923C10.247 25.1714 8.50563 24.1661 6.45117 24.1661L6.44464 24.1659ZM12.298 30.1871L16.8548 30.7137C17.4749 30.7855 18.0512 30.9443 18.5741 31.188L19.4542 31.5971C20.0117 31.8561 20.6255 32.0084 21.2519 32.1128V35.4051C21.0076 35.3551 20.7633 35.305 20.5316 35.2245L18.0511 34.3628C17.4968 34.1713 16.8986 34.0451 16.2722 33.9885L10.8197 33.5185C11.6089 32.4806 12.0912 31.3556 12.2948 30.1871L12.298 30.1871ZM19.9678 44.4984C19.1473 44.1197 18.2391 43.8673 17.2682 43.7564L12.013 43.1471C11.3334 43.0687 10.8104 42.6966 10.7102 42.2201L10.5316 41.3475C10.2404 39.9287 8.49593 38.9212 6.44146 38.9212C6.25669 38.9212 6.07504 38.93 5.88713 38.9452C5.01339 39.03 4.08946 38.8255 3.23448 38.3685C2.44526 37.5525 2.30117 36.6712 2.84613 35.9314C3.35975 35.2329 4.38388 34.7999 5.35784 34.7933L15.9625 35.7138C16.3039 35.7442 16.6327 35.8117 16.9333 35.9183L19.4138 36.78C19.9994 36.9824 20.6226 37.1042 21.2553 37.1847V45.0381C21.1175 44.9924 20.9734 44.9641 20.845 44.9032L19.9678 44.4984ZM39.5696 34.8C40.672 34.8196 41.6648 35.2483 42.169 35.9315C42.714 36.6714 42.5699 37.5527 41.7807 38.3686C40.9257 38.8234 40.0175 39.0258 39.1249 38.9453C36.8669 38.7408 34.803 39.8048 34.4867 41.3498L34.3363 42.0766C34.2142 42.6641 33.7162 43.0666 33.0022 43.1472L27.7501 43.7565C26.7761 43.8696 25.8647 44.1199 25.0505 44.4985L24.1673 44.9076C24.0389 44.9663 23.8948 44.9968 23.7601 45.0425V37.1891C24.3928 37.1086 25.016 36.9868 25.6017 36.7844L28.0821 35.9227C28.3828 35.8182 28.7116 35.7486 29.0498 35.7181L39.5727 34.8042L39.5696 34.8ZM28.7333 33.9884C28.1132 34.045 27.515 34.1712 26.9607 34.3627L24.4803 35.2244C24.2485 35.3049 24.0042 35.355 23.7599 35.405V32.1105C24.3863 32.0083 25.0002 31.8538 25.5576 31.5948L26.4408 31.1857C26.9607 30.942 27.5401 30.7832 28.1601 30.7114L32.7138 30.1848C32.9174 31.3511 33.4028 32.4739 34.1921 33.5119L28.7333 33.9863L28.7333 33.9884Z" fill="white" fill-opacity="0.6"/>
</svg>
