<svg width="45" height="48" viewBox="0 0 45 48" fill="none" xmlns="http://www.w3.org/2000/svg">
<path d="M13.0719 15.1509C12.8978 15.2527 12.5947 15.2252 12.2739 15.196C11.8484 15.1575 11.3661 15.1136 10.9385 15.3477C10.5488 15.5609 10.3393 15.9624 10.1545 16.3165C9.94513 16.7176 9.80112 16.9652 9.56737 17.0216C9.31468 17.0821 9.03177 16.9794 8.70413 16.8597C8.2729 16.7022 7.78407 16.524 7.23397 16.6954C6.84237 16.8174 6.53063 17.0903 6.29481 17.3807C6.24198 17.0648 6.19201 16.7601 6.14412 16.4679C5.90272 14.9952 5.71195 13.8319 5.45796 13.1019C5.11202 12.1073 4.47537 10.8837 3.80131 9.58793C2.44778 6.98693 0.763798 3.7498 0.763798 0.998036C0.763798 0.7921 0.59274 0.625021 0.381899 0.625021C0.171058 0.625021 0 0.7921 0 0.998036C0 3.92836 1.73018 7.25395 3.12029 9.92613C3.7816 11.1973 4.40616 12.398 4.73478 13.3422C4.9679 14.0125 5.15423 15.1482 5.38989 16.586C6.16147 21.2925 7.4528 29.1694 12.7916 34.3578C18.2319 39.6449 26.4772 42.0561 30.9069 43.3512C32.0499 43.6853 32.9526 43.9494 33.4688 44.1632C35.9099 45.1751 37.47 47.4357 37.4853 47.4581C37.5588 47.5664 37.6802 47.625 37.804 47.625C37.8764 47.625 37.9498 47.6049 38.0147 47.5628C38.1905 47.4489 38.2384 47.2175 38.1219 47.0459C38.0669 46.9648 36.9906 45.4011 35.1753 44.223C35.3888 44.1807 35.6128 44.1181 35.8432 44.0251C36.5787 43.7286 36.9299 43.3458 37.1863 43.0663C37.3435 42.8949 37.4571 42.771 37.6129 42.7051C37.8166 42.6188 38.0742 42.6802 38.3725 42.7511C38.6505 42.8173 38.9653 42.8925 39.3037 42.859C39.6829 42.8215 39.9848 42.6258 40.2055 42.4182C41.4623 44.8804 44.2291 47.408 44.3581 47.525C44.4318 47.5918 44.5249 47.6246 44.618 47.6246C44.7204 47.6246 44.8226 47.5845 44.8979 47.5056C45.0414 47.3547 45.0326 47.1187 44.878 46.9785C44.8444 46.9481 41.5115 43.9029 40.5844 41.3994C40.2849 40.5906 40.0875 38.9936 39.8375 36.9714C39.2945 32.58 38.5511 26.566 36.0364 21.8128C33.2362 16.5198 28.4486 13.2643 24.953 10.8874C23.7995 10.1031 22.8034 9.42579 22.0851 8.81325C19.2868 6.42766 17.6335 0.949487 17.6172 0.894181C17.5583 0.696326 17.3467 0.582404 17.144 0.63991C16.9414 0.697261 16.8249 0.904128 16.8837 1.10197C16.953 1.33526 18.6146 6.84501 21.583 9.37595C22.2239 9.92256 23.0571 10.5051 24.0174 11.1604C23.8612 11.3831 23.5946 11.6815 23.2332 11.7875C22.9484 11.8711 22.694 11.8399 22.3993 11.8034C22.0046 11.7547 21.5573 11.6997 20.9757 11.899C20.4575 12.0766 20.0573 12.4027 19.7042 12.6902C19.3396 12.9871 19.0249 13.2435 18.6404 13.3231C18.1223 13.4306 17.5604 13.2538 17.2575 13.1315C17.2869 12.8194 17.3046 12.483 17.3046 12.1232C17.3046 11.127 16.8925 9.44062 16.4152 7.48789C15.8651 5.23595 15.2412 2.68345 15.2412 0.998018C15.2412 0.792082 15.0702 0.625003 14.8593 0.625003C14.6485 0.625003 14.4774 0.792082 14.4774 0.998018C14.4774 2.77106 15.1123 5.36916 15.6726 7.66097C16.1193 9.48844 16.5411 11.2145 16.5411 12.1228C16.5411 13.4708 16.2725 14.4758 16.0968 14.989C15.4134 14.6023 14.7325 14.2226 14.0671 13.8517C11.2187 12.2644 8.75876 10.8934 7.64667 9.82438C5.22956 7.50082 2.79095 3.87045 2.79095 0.998137C2.79095 0.792201 2.61989 0.625122 2.40905 0.625122C2.19821 0.625122 2.02715 0.792201 2.02715 0.998137C2.02715 4.29822 4.7657 8.10194 7.11059 10.3563C8.24594 11.4479 10.5946 12.7752 13.3411 14.3064C13.3443 14.5994 13.2891 15.0248 13.0724 15.1513L13.0719 15.1509ZM20.1934 13.2629C20.4335 13.0673 20.6644 12.8804 20.9198 12.741C21.4169 13.7397 21.9787 14.7288 22.6328 15.7535C23.2998 16.7988 24.0684 17.8887 24.9826 19.0852C25.0575 19.1832 25.1724 19.235 25.2889 19.235C25.3683 19.235 25.4485 19.2109 25.5169 19.161C25.6861 19.0377 25.7208 18.804 25.5946 18.6389C24.6934 17.4594 23.9365 16.3866 23.2809 15.359C22.6622 14.3893 22.1274 13.4532 21.654 12.5104C21.8766 12.4907 22.0806 12.5157 22.3037 12.5432C22.5802 12.5773 22.888 12.6135 23.2364 12.5513C28.3517 16.9829 31.7388 21.187 33.886 25.7698C33.9502 25.9069 34.0888 25.9877 34.2336 25.9877C34.2867 25.9877 34.3408 25.9768 34.3922 25.9538C34.584 25.868 34.6683 25.6467 34.5806 25.4594C32.4259 20.8603 29.0609 16.6451 24.0133 12.2278C24.2916 12.0324 24.5013 11.7878 24.6439 11.5865C28.0622 13.9115 32.6778 17.0892 35.3579 22.1555C37.8093 26.7888 38.5432 32.726 39.0792 37.061C39.3349 39.1301 39.537 40.7644 39.866 41.6529C39.8668 41.6554 39.8681 41.6578 39.8689 41.6602C39.7354 41.8419 39.4968 42.09 39.2266 42.1167C39.0764 42.1313 38.9165 42.1073 38.7493 42.0714C37.7633 37.7985 35.5989 32.6646 32.9305 28.2827C31.5713 26.0505 29.8446 23.9287 28.1746 21.8768C28.0433 21.7156 27.8031 21.6887 27.6379 21.817C27.4729 21.945 27.4453 22.1799 27.5766 22.3411C29.2307 24.3735 30.941 26.4751 32.2739 28.6638C34.8377 32.8742 36.928 37.7833 37.9292 41.9189C37.728 41.9086 37.5198 41.9312 37.3088 42.0202C37.207 42.0633 37.1185 42.1158 37.0377 42.1733C31.6809 33.5854 24.9069 23.9944 15.2749 17.3912C15.1023 17.2729 14.8641 17.3136 14.743 17.4823C14.6219 17.6509 14.6636 17.8836 14.8362 18.0019C24.4108 24.5653 31.1501 34.1535 36.4808 42.714C36.315 42.886 36.1207 43.0579 35.8124 43.2161C26.9336 32.0193 19.9681 24.4201 13.252 18.5999C13.0941 18.4631 12.8527 18.4771 12.7129 18.6315C12.5729 18.7855 12.5873 19.0214 12.745 19.158C19.3866 24.9138 26.2812 32.429 35.0589 43.4842C34.4946 43.6028 34.0254 43.5307 33.8316 43.4885C31.687 40.9898 28.3575 39.1636 25.1357 37.3974C22.7976 36.1157 20.3798 34.7903 18.5288 33.251C14.0902 29.56 11.0338 25.4052 8.91019 20.1758C8.83238 19.9841 8.6104 19.8904 8.41436 19.9666C8.21832 20.0424 8.12236 20.2594 8.20018 20.4507C10.3719 25.7983 13.4967 30.0461 18.0338 33.8192C19.9412 35.4054 22.3918 36.7489 24.7622 38.0483C27.4757 39.5359 30.2672 41.0664 32.3036 42.984C31.948 42.8766 31.5538 42.7615 31.1264 42.6365C26.7612 41.36 18.6352 38.9841 13.3309 33.829C8.87321 29.4968 7.32036 23.1442 6.4922 18.5184C6.63398 18.1931 6.99647 17.5531 7.46685 17.4067C7.76536 17.3136 8.07695 17.4275 8.43767 17.559C8.73889 17.6689 9.07115 17.7895 9.42869 17.7855C12.2224 23.7283 17.518 29.6802 25.611 35.9719C25.6814 36.0266 25.7652 36.053 25.8486 36.053C25.9609 36.053 26.0722 36.0049 26.1476 35.9124C26.279 35.7512 26.2517 35.5165 26.0867 35.3881C18.1273 29.2003 12.9151 23.3637 10.1622 17.5574C10.4836 17.3283 10.6744 16.9646 10.8359 16.6555C10.9847 16.3704 11.1252 16.1014 11.313 15.9985C11.5332 15.8779 11.8591 15.9074 12.2042 15.9388C12.6132 15.976 13.0767 16.0179 13.465 15.7913C13.8733 15.5527 14.0278 15.1037 14.0808 14.7181C17.8041 16.7944 21.9245 19.1271 24.2012 21.4706C28.2734 25.6623 31.7157 32.4892 31.7504 32.5576C31.8166 32.6899 31.9525 32.7668 32.0938 32.7668C32.1501 32.7668 32.2072 32.7545 32.2613 32.7287C32.4507 32.6381 32.5293 32.4148 32.4365 32.2296C32.4018 32.1602 28.9094 25.2325 24.7554 20.9568C23.7911 19.9643 22.5201 18.9814 21.0971 18.0224C20.0588 16.7169 19.4199 15.3793 19.1513 13.9441C19.55 13.7841 19.8767 13.5206 20.194 13.2623L20.1934 13.2629ZM17.1571 13.8921C17.458 13.9967 17.8671 14.1012 18.3039 14.1012C18.3367 14.1012 18.3696 14.1001 18.4027 14.099C18.5916 15.0965 18.9446 16.0483 19.4687 16.9729C18.5913 16.4286 17.6821 15.8941 16.77 15.3721C16.8818 15.0713 17.0413 14.5673 17.1571 13.8921Z" fill="white" fill-opacity="0.6"/>
</svg>
