<svg width="45" height="48" viewBox="0 0 45 48" fill="none" xmlns="http://www.w3.org/2000/svg">
<path d="M33.0413 28.9827C33.0079 28.2787 32.6423 27.0291 30.6066 26.403C28.7016 22.1437 25.4204 19.6871 22.246 17.3105C17.9699 14.1094 13.9311 11.0857 13.9311 3.9202H13.9313C13.9313 3.66072 13.7297 3.4502 13.4813 3.4502C13.2327 3.4502 13.0312 3.66072 13.0312 3.9202C13.0312 11.2032 16.8064 14.3945 21.7219 18.0742C24.8496 20.4157 28.0838 22.8369 29.8748 26.9901V26.9903C29.9306 27.1202 30.0398 27.2164 30.1718 27.2522C31.0437 27.4889 32.0934 27.9893 32.1426 29.0288H32.1425C32.1192 29.5121 31.9642 29.9783 31.6957 30.3727C31.4272 30.7669 31.0565 31.0731 30.6271 31.2547C30.4532 31.322 30.3365 31.4937 30.3328 31.6874C30.2498 33.0408 29.8692 34.3561 29.2209 35.5311C27.8136 38.0335 25.3591 39.3032 21.926 39.305C21.1619 39.3148 20.4302 39.6289 19.8806 40.1832C18.9642 41.0878 18.4997 42.5668 18.4997 44.5789H18.4996C18.4996 44.8383 18.7012 45.0489 18.9496 45.0489C19.1982 45.0489 19.3996 44.8383 19.3996 44.5789C19.3996 42.8727 19.7744 41.5941 20.4836 40.8814C20.866 40.4849 21.3796 40.2571 21.9184 40.245C26.6468 40.245 28.9324 37.921 30.0169 35.9715C30.6825 34.7555 31.0913 33.4047 31.2156 32.0102C31.7555 31.7275 32.2109 31.296 32.5328 30.7622C32.8546 30.2286 33.0305 29.6131 33.0415 28.9825L33.0413 28.9827Z" fill="white" fill-opacity="0.6"/>
<path d="M27.5846 32.4207C28.4759 32.1213 29.2718 31.5728 29.886 30.8348C30.0392 30.6311 30.0059 30.3364 29.8116 30.1757C29.617 30.015 29.3347 30.0488 29.1802 30.2514C28.8206 30.6807 28.3819 31.0301 27.89 31.2785C27.9439 30.9962 27.9823 30.7109 28.0053 30.424C28.6675 30.3221 29.3104 30.1123 29.9103 29.8021C30.1294 29.6795 30.2119 29.3947 30.0946 29.1658C29.9772 28.9369 29.7045 28.8508 29.4855 28.9733C29.023 29.2074 28.5317 29.3731 28.0256 29.4653C28.0167 29.2504 27.9987 29.0366 27.972 28.8241C28.5368 28.8338 29.0115 28.7696 29.3165 28.7608C29.5643 28.7528 29.7591 28.5368 29.7522 28.2779C29.7453 28.0191 29.5394 27.8148 29.2914 27.8211C28.7934 27.8658 28.2936 27.8841 27.7937 27.8763C27.1587 25.3521 25.2554 23.0036 22.1099 20.8733V20.8732C20.1187 19.5518 17.989 18.4732 15.7626 17.6584L15.7377 17.6496L15.7379 17.6494C15.0819 17.3763 14.3381 17.4698 13.7628 17.8976C12.6315 18.727 11.9561 20.8006 11.9561 23.4447C11.9561 29.1972 15.6365 38.0445 21.0438 38.0445C23.3218 38.0445 26.4386 35.7389 27.5849 32.421L27.5846 32.4207ZM12.8557 23.4445C12.8557 21.1762 13.4145 19.301 14.2795 18.6669V18.6668C14.6322 18.4212 15.0792 18.3764 15.4703 18.5473C16.5382 18.9299 25.026 22.1307 26.8054 27.7205C25.8202 27.4333 24.9372 26.851 24.2655 26.0455C23.7234 25.4352 23.1039 24.9056 22.4241 24.471C22.4748 23.3244 21.3562 22.6365 20.3804 22.1044C19.1972 21.386 17.2739 20.6723 16.6377 21.9471C15.3305 24.5662 20.8125 28.0414 22.1543 25.4074C22.6863 25.7697 23.1738 26.1987 23.606 26.6849C24.4954 27.7591 25.7098 28.4833 27.0474 28.7376C27.0905 29.007 27.1172 29.279 27.1271 29.5522C25.3835 29.557 25.1701 28.7041 22.92 28.3926C22.6856 26.8136 21.1659 26.6671 19.7297 26.6664C18.2873 26.5957 16.13 26.9045 16.13 28.4202C16.13 31.3474 22.2227 31.9562 22.8909 29.3374C24.9308 29.6443 25.1545 30.4873 27.0958 30.4949H27.0956C27.0543 30.8849 26.9803 31.2705 26.8747 31.647C25.7188 31.9028 25.3378 31.5362 23.743 31.8238C22.9895 30.5089 21.672 30.9203 20.3288 31.537C19.0463 32.0543 17.3173 33.1763 17.8709 34.4895C18.4714 35.9131 20.5916 35.9159 21.9078 35.3103C22.961 34.8259 24.1211 33.9301 24.0403 32.7265C25.3108 32.5238 25.492 32.766 26.5119 32.6572C25.3594 35.2705 22.8431 37.1042 21.0437 37.1042C16.2999 37.1042 12.8559 28.7973 12.8559 23.4444L12.8557 23.4445ZM18.9401 24.144C19.7894 24.2581 20.613 24.5269 21.3735 24.9383C21.2857 25.1158 21.1438 25.2576 20.9702 25.3413C20.7966 25.4251 20.601 25.4458 20.4149 25.4003C18.7112 25.2724 16.9253 23.4042 17.4355 22.3818C17.824 21.6035 20.7105 23.2217 21.2751 23.851C20.555 23.5176 19.7905 23.3003 19.0079 23.2066C18.76 23.187 18.5439 23.381 18.5252 23.6398C18.5064 23.8987 18.6922 24.1244 18.9401 24.144ZM18.9302 29.216C20.0224 29.2876 20.9294 29.2035 21.9566 29.2495C21.5623 30.0286 20.0567 30.074 19.7189 30.074C18.8063 30.074 17.03 29.4904 17.03 28.4206C17.03 27.7364 18.7504 27.5993 19.4076 27.5993C19.6055 27.5993 19.6846 27.6068 19.7189 27.6068C21.2577 27.6068 21.8076 27.8201 21.981 28.3098C20.9674 28.2652 19.9924 28.3441 18.9869 28.278L18.9867 28.2777C18.7387 28.2613 18.525 28.4582 18.5094 28.7173C18.4937 28.9763 18.6822 29.1995 18.9302 29.2159L18.9302 29.216ZM22.3829 31.8976C22.5289 31.9017 22.6691 31.9586 22.7795 32.0585C21.9787 32.3 21.2133 32.6545 20.5045 33.1122C20.4043 33.1806 20.3341 33.2878 20.3098 33.4102C20.2855 33.5326 20.3089 33.6602 20.3749 33.7646C20.4408 33.8689 20.5437 33.9416 20.6611 33.9665C20.7784 33.9913 20.9004 33.9662 21 33.8969C21.6677 33.473 22.3883 33.1477 23.1415 32.9301C23.1002 33.1746 22.985 33.3987 22.8129 33.5698C21.6523 34.8785 19.1391 35.1652 18.6947 34.1108C18.3471 33.2866 21.5737 31.8388 22.383 31.8975L22.3829 31.8976Z" fill="white" fill-opacity="0.6"/>
</svg>
