<svg width="46" height="37" viewBox="0 0 46 37" fill="none" xmlns="http://www.w3.org/2000/svg">
<g clip-path="url(#clip0_44_2244)">
<path d="M12.2865 10.0459V29.0771H7.65137V10.0459H12.2865Z" fill="#CACACA"/>
<path d="M27.4955 25.7149H20.3925L19.2541 29.0771H14.4014L21.2868 10.0459H26.654L33.5395 29.0771H28.6326L27.4943 25.7149H27.4955ZM26.3031 22.1363L23.9446 15.1691L21.6126 22.1363H26.3031Z" fill="#CACACA"/>
<path d="M39.4766 12.6801H36.4804V15.7454H33.6905V12.6801H30.6943V10.0449H33.6905V6.96191H36.4804V10.0449H39.4766V12.6801Z" fill="#CACACA"/>
<path d="M15.3017 36.0946H3.69555C1.65784 36.0946 0 34.4368 0 32.3991V20.793H1.88677V32.3991C1.88677 33.3966 2.69808 34.2079 3.69555 34.2079H15.3017V36.0946Z" fill="#CACACA"/>
<path d="M45.5009 16.0561H43.6141V4.44994C43.6141 3.45247 42.8028 2.64116 41.8053 2.64116H30.1992V0.754395H41.8053C43.8431 0.754395 45.5009 2.41223 45.5009 4.44994V16.0561Z" fill="#CACACA"/>
</g>
<defs>
<clipPath id="clip0_44_2244">
<rect width="45.5" height="35.3404" fill="white" transform="translate(0 0.754395)"/>
</clipPath>
</defs>
</svg>
