<svg width="45" height="48" viewBox="0 0 45 48" fill="none" xmlns="http://www.w3.org/2000/svg">
<path d="M7.60363 47.8748C3.41101 47.8748 0 44.3123 0 39.9334V23.69C0 19.3111 3.41101 15.7485 7.60363 15.7485H17.7533C18.1203 15.7485 18.4179 16.0593 18.4179 16.4426V36.5801C18.4179 42.808 13.5666 47.8748 7.60363 47.8748ZM7.60363 17.1367C4.14383 17.1367 1.32912 20.0765 1.32912 23.69V39.9334C1.32912 43.5469 4.14383 46.4866 7.60363 46.4866C12.8337 46.4866 17.0887 42.0426 17.0887 36.5801V17.1367H7.60363Z" fill="white" fill-opacity="0.6"/>
<path d="M37.3963 47.8748C31.4333 47.8748 26.582 42.808 26.582 36.5801V16.4426C26.582 16.0593 26.8796 15.7485 27.2466 15.7485H37.3963C41.5889 15.7485 44.9999 19.3111 44.9999 23.69V39.9334C44.9999 44.3123 41.5889 47.8748 37.3963 47.8748ZM27.9112 17.1367V36.5801C27.9112 42.0426 32.1662 46.4866 37.3963 46.4866C40.8561 46.4866 43.6708 43.5469 43.6708 39.9334V23.69C43.6708 20.0765 40.8561 17.1367 37.3963 17.1367H27.9112Z" fill="white" fill-opacity="0.6"/>
<path d="M8.25898 33.9929C8.04936 33.9929 7.84325 33.8897 7.71395 33.6968C7.50347 33.3827 7.57657 32.95 7.87724 32.7302L17.3535 25.802L21.8345 22.0581V1.56909C21.8345 1.18575 22.132 0.875 22.499 0.875C22.866 0.875 23.1636 1.18575 23.1636 1.56909V22.3917C23.1636 22.6025 23.0718 22.802 22.9142 22.9337L18.1673 26.8999C18.1562 26.9092 18.1449 26.9181 18.1332 26.9265L8.63949 33.8674C8.52348 33.9522 8.39057 33.9929 8.25898 33.9929Z" fill="white" fill-opacity="0.6"/>
<path d="M36.7386 33.9937C36.6069 33.9937 36.4741 33.9529 36.358 33.868L26.8643 26.9272C26.8527 26.9188 26.8414 26.9098 26.8303 26.9005L22.0834 22.9343C21.7968 22.6947 21.7504 22.2581 21.9796 21.9587C22.2089 21.6595 22.627 21.6109 22.9137 21.8503L27.6439 25.8027L37.1203 32.7308C37.4209 32.9507 37.494 33.3834 37.2836 33.6975C37.1543 33.8905 36.9481 33.9937 36.7386 33.9937Z" fill="white" fill-opacity="0.6"/>
<path d="M30.0945 29.0382C29.7756 29.0382 29.494 28.7976 29.4398 28.458C29.3794 28.0799 29.624 27.7223 29.9861 27.6593L35.6823 26.6678C36.043 26.6047 36.3868 26.8599 36.4471 27.2383C36.5074 27.6164 36.2629 27.974 35.9008 28.037L30.2045 29.0286C30.1677 29.0351 30.1309 29.0382 30.0945 29.0382Z" fill="white" fill-opacity="0.6"/>
<path d="M34.8408 37.9613C34.5219 37.9613 34.2403 37.7207 34.1861 37.3811L33.2367 31.4318C33.1763 31.0537 33.4209 30.6961 33.783 30.6331C34.1437 30.57 34.4874 30.8253 34.5477 31.2037L35.4971 37.153C35.5574 37.5311 35.3129 37.8887 34.9508 37.9517C34.914 37.9582 34.8771 37.9613 34.8408 37.9613Z" fill="white" fill-opacity="0.6"/>
<path d="M14.9066 29.0334C14.8704 29.0334 14.8335 29.0304 14.7966 29.0238L9.10035 28.0323C8.73835 27.9693 8.4937 27.6117 8.55408 27.2336C8.61446 26.8554 8.95699 26.5994 9.31889 26.663L15.0151 27.6546C15.3771 27.7175 15.6218 28.0751 15.5614 28.4533C15.5072 28.7928 15.2256 29.0334 14.9066 29.0334Z" fill="white" fill-opacity="0.6"/>
<path d="M10.1596 37.9565C10.1233 37.9565 10.0865 37.9534 10.0496 37.9469C9.68757 37.8839 9.44292 37.5263 9.5033 37.1482L10.4527 31.1989C10.513 30.8208 10.8552 30.5649 11.2175 30.6283C11.5795 30.6913 11.8241 31.0488 11.7638 31.427L10.8144 37.3763C10.7602 37.7158 10.4786 37.9565 10.1596 37.9565Z" fill="white" fill-opacity="0.6"/>
</svg>
