<svg width="45" height="46" viewBox="0 0 45 46" fill="none" xmlns="http://www.w3.org/2000/svg">
<g clip-path="url(#clip0_404_132)">
<path d="M32.231 11.9404C34.9481 12.9199 36.3428 17.104 36.6276 19.6328C37.3272 25.7667 34.9239 32.144 29.1182 34.9573C27.3713 35.8018 25.7281 35.657 24.1885 34.5205C24.0921 34.4481 24.0364 34.4723 24.0244 34.5954C23.7566 37.2183 23.7132 39.8461 23.8966 42.476C23.9061 42.6015 23.8482 42.6859 23.7277 42.7293C23.3248 42.8791 23.0931 42.7777 23.0302 42.4253C22.5502 39.7831 22.9603 36.861 23.0157 34.88C23.0881 32.1604 23.3175 29.2191 23.7034 26.0508C23.9907 23.6814 23.0931 21.4396 23.2836 19.0557C23.5539 15.7547 26.7004 12.9894 29.5959 11.7779C34.7935 9.60375 39.5666 7.41759 39.866 0.9004C39.8682 0.842488 39.8924 0.79408 39.9384 0.755621C39.9818 0.716938 40.0347 0.699972 40.0926 0.704948L40.5512 0.755621C40.7152 0.770099 40.7998 0.861715 40.7998 1.02821C40.7853 6.35856 36.9559 9.89331 32.2312 11.5826C32.1468 11.6115 32.1034 11.6719 32.1034 11.7611C32.1034 11.8504 32.1467 11.9114 32.231 11.9404ZM25.0523 33.9033C28.3702 36.2462 32.9717 31.138 34.2215 28.5682C36.316 24.2633 36.345 18.8536 33.833 14.6063C31.3453 10.4055 26.7458 14.0055 25.0838 16.7273C23.9979 18.5009 24.133 20.5882 24.5553 22.5405C24.8956 24.0921 24.782 25.8681 24.5069 27.4897C24.2585 28.935 23.6722 32.9283 25.0523 33.9033Z" fill="white" fill-opacity="0.6"/>
<path d="M12.168 11.9397C9.45086 12.9192 8.05869 17.1035 7.77138 19.6323C7.07168 25.7664 9.47507 32.1438 15.281 34.9573C17.0281 35.8017 18.6714 35.657 20.2108 34.5204C20.3074 34.448 20.3628 34.4722 20.3748 34.5953C20.6427 37.2184 20.6861 39.8462 20.5029 42.4761C20.4956 42.6017 20.5511 42.6861 20.6716 42.7295C21.0748 42.8792 21.3064 42.7779 21.3691 42.4254C21.8494 39.7832 21.439 36.861 21.3836 34.8799C21.3112 32.1603 21.082 29.2189 20.6958 26.0505C20.4088 23.6811 21.3064 21.4392 21.1157 19.0552C20.8454 15.7541 17.6988 12.9888 14.8032 11.7772C9.60549 9.60301 4.83229 7.4168 4.53346 0.899429C4.53097 0.841516 4.50677 0.793106 4.46107 0.754646C4.41764 0.715962 4.36447 0.698995 4.30656 0.703972L3.848 0.754646C3.68399 0.769124 3.59961 0.860743 3.59961 1.02724C3.61409 6.35774 7.44359 9.89258 12.1684 11.5819C12.2528 11.6109 12.2962 11.6713 12.2962 11.7604C12.2962 11.8498 12.2528 11.9102 12.1684 11.9391L12.168 11.9397ZM19.3469 33.9032C16.0292 36.2462 11.4296 31.1379 10.1776 28.568C8.08296 24.263 8.054 18.8531 10.566 14.6057C13.054 10.4048 17.6534 14.0049 19.3161 16.7268C20.4019 18.5004 20.2666 20.5877 19.8445 22.5401C19.5043 24.0918 19.6176 25.8679 19.8927 27.4894C20.1413 28.9348 20.7277 32.9283 19.3473 33.9033L19.3469 33.9032Z" fill="white" fill-opacity="0.6"/>
</g>
<defs>
<clipPath id="clip0_404_132">
<rect width="45" height="45" fill="white" transform="translate(0 0.75)"/>
</clipPath>
</defs>
</svg>
