<svg width="45" height="47" viewBox="0 0 45 47" fill="none" xmlns="http://www.w3.org/2000/svg">
<path d="M28.8934 21.3579V47H27.2984V21.3579C27.2984 19.6263 25.1524 18.2181 22.5136 18.2181C19.8747 18.2181 17.7287 19.6263 17.7287 21.3579V47H16.1337V21.3579C16.1337 20.6363 16.4137 19.9565 16.9057 19.3631L13.089 16.8585L15.7398 15.1196L16.8674 15.8595L15.3442 16.8585L17.8555 18.5064C18.8492 17.8078 20.2001 17.3332 21.7153 17.2076V15.152L19.2112 13.5083H13.6624L11.1798 11.8792L12.3075 11.1393L14.3227 12.4617H18.5262V11.2073L22.0989 8.8629L23.2265 9.60286L20.1211 11.6406V12.6255L23.311 14.7187V17.2076C23.9865 17.2646 24.6293 17.3897 25.2234 17.5734L28.7171 15.2807V12.8516L31.5777 10.975L32.7053 11.7149L30.856 12.928H34.3968L37.6696 10.7803L38.7972 11.5203L35.0571 13.9746H30.3121V15.7135L26.6022 18.148C28.001 18.9172 28.8934 20.0701 28.8934 21.3579ZM32.6527 17.6765L31.1231 16.6727L29.9955 17.4127L31.525 18.4164L32.6527 17.6765ZM8.43012 3.72978L5.8471 5.42425L6.97473 6.16421L9.55776 4.46973L8.43012 3.72978ZM25.7242 7.59597L26.8518 8.33593L30.8958 5.68276L35.4135 8.5688L33.4581 9.85196L34.5858 10.5919L37.684 8.55834L35.2732 7.01772V3.56546H33.6782V5.99884L30.8815 4.21174L25.7242 7.59597ZM17.6194 9.94249L15.3363 8.44426V5.03386L11.6814 2.63606L10.5538 3.37602L13.7413 5.46716V7.39764L12.018 6.26677L8.09678 8.83936L5.9412 7.42538L4.81357 8.16533L8.09678 10.3193L12.018 7.74669L16.4918 10.6819L17.6194 9.94249ZM24.8087 12.671L27.107 11.1628L25.9794 10.4229L23.6811 11.9311L24.8087 12.671ZM19.1905 5.62886L18.0628 6.36882L20.6387 8.05858L21.7663 7.31862L19.1905 5.62886ZM7.90459 12.9766L10.4796 14.6664L11.6073 13.9264L9.03222 12.2367L7.90459 12.9766ZM40.8555 5.65869H37.6656V6.7053H40.8555V5.65869ZM19.3237 32.3474V47H20.9186V32.3474H19.3237ZM19.3237 30.2542H20.9186V27.1143H19.3237V30.2542ZM25.8574 2.79044C25.1253 3.4294 23.9378 3.81089 22.681 3.81089H22.319C21.0622 3.81089 19.8739 3.4294 19.1418 2.79044C16.9232 0.853676 13.396 -0.179855 9.70529 0.0263252C4.26251 0.33194 0 3.39224 0 6.99313C0 9.20986 1.80708 11.9316 5.3718 15.0814C9.226 18.4891 11.3489 22.7756 11.3489 27.1515V47H12.9438V27.1515C12.9438 22.5526 10.7093 18.0443 6.65095 14.4571C3.34302 11.5328 1.59416 8.95134 1.59416 6.99207C1.59416 3.9302 5.2163 1.32832 9.84006 1.06823C12.9797 0.893448 15.9806 1.77208 17.8667 3.41841C18.8986 4.31955 20.5629 4.85698 22.319 4.85698H22.681C24.4371 4.85698 26.1014 4.31955 27.1325 3.41841C29.0186 1.77208 32.0195 0.893448 35.1583 1.06823C39.7829 1.32832 43.4058 3.93073 43.4058 6.99207C43.4058 8.93878 41.6769 11.5025 38.4049 14.4063C34.3282 18.025 32.0833 22.5689 32.0833 27.2027V47H33.6782V27.2027C33.6782 22.7918 35.8123 18.4687 39.6872 15.029C43.2121 11.9002 45 9.19625 45 6.9926C45 3.39172 40.7367 0.331417 35.2931 0.0258026C31.6032 -0.179855 28.076 0.853153 25.8574 2.79044Z" fill="white" fill-opacity="0.6"/>
</svg>
