<svg viewBox="0 0 45 45" fill="none" xmlns="http://www.w3.org/2000/svg">
    <g clip-path="url(#clip0_44_2884)">
        <path d="M34.1892 3.26646C24.4624 -2.63499 12.1056 -0.267329 5.14631 8.17254C4.77357 8.62233 4.89435 9.2991 5.40036 9.58647H5.40245C5.7981 9.81345 6.29787 9.72182 6.58732 9.3699C12.8511 1.76923 23.8856 -0.463073 32.7253 4.58044C35.7426 6.30048 38.1582 8.67231 39.9032 11.419L35.3283 14.0511C34.8785 14.3093 34.7244 14.884 34.9847 15.3317C35.2429 15.7795 35.8155 15.9335 36.2632 15.6753L40.8361 13.0474C43.9201 19.0488 44.0138 26.4433 40.428 32.7279C34.791 42.6129 22.1656 46.0676 12.2826 40.4306C9.26525 38.7085 6.84761 36.3346 5.10467 33.59L7.0496 32.4718C8.31777 34.4875 9.93994 36.2846 11.7245 37.4257C12.0161 37.6132 12.4992 37.9338 12.8511 37.7964C13.0448 37.7214 13.1281 37.559 13.2384 37.3987C15.3021 34.4021 16.8305 30.6122 18.8608 27.5449C19.2023 26.9826 18.7213 26.5016 18.2653 26.0227L19.7521 25.1689C19.9978 25.4229 20.281 25.6478 20.6038 25.8311C22.4404 26.8806 24.7831 26.2413 25.8326 24.4005C26.3616 23.4738 26.4594 22.4201 26.1929 21.4664L32.8398 17.6453C33.2896 17.387 33.4437 16.8144 33.1834 16.3646C32.9252 15.9148 32.3525 15.7607 31.9048 16.0189L25.2579 19.8401C24.881 19.4465 24.4124 19.1237 23.8481 18.9113C22.2072 18.2991 20.3164 18.8926 19.3335 20.344C18.663 21.3331 18.5193 22.5014 18.8129 23.5446L17.3511 24.3859C17.1616 23.8445 16.9575 23.3343 16.5182 23.1865C12.9948 23.2135 9.45058 23.0969 5.9272 23.2073C5.19213 23.2323 4.33211 23.0428 4.20716 24.0111C4.15302 24.4171 4.47162 26.1601 4.57991 26.6515C4.87977 28.0072 5.41078 29.4482 6.12087 30.8413L4.17176 31.9616C1.59795 26.9597 1.10651 20.9854 3.09309 15.4942C3.24927 15.0652 3.07435 14.5863 2.6787 14.3614C2.53085 14.2781 2.37259 14.2385 2.21641 14.2385C1.83534 14.2385 1.47092 14.4738 1.3314 14.8632C-2.32108 24.9627 1.7104 36.5595 11.3518 42.0569C22.3925 48.354 36.5714 44.2497 42.4854 32.8653C47.9204 22.4035 44.27 9.38448 34.1892 3.26854V3.26646ZM24.7623 22.2848C24.806 22.7367 24.7165 23.2031 24.4749 23.6258C23.8523 24.717 22.4675 25.096 21.3784 24.4754C21.3076 24.4359 21.241 24.3922 21.1764 24.3463L24.7623 22.2848ZM20.5309 21.3769C21.1514 20.2878 22.5383 19.9067 23.6295 20.5293C23.7003 20.5689 23.7669 20.6106 23.8315 20.6585L20.2435 22.72C20.1998 22.2702 20.2873 21.8017 20.5309 21.3769ZM16.8305 26.8452C16.9513 26.991 17.0742 27.1367 17.2137 27.2679L12.318 35.8494C10.7604 34.727 9.43392 33.3047 8.38441 31.7013L16.8305 26.8452ZM5.82309 24.7836L15.6519 24.7503C15.7269 24.9107 15.8018 25.071 15.8789 25.2293L7.4515 30.075C6.61855 28.4153 6.05839 26.6182 5.82309 24.7836Z" fill="#BABABA"/>
        <path d="M40.2183 23.1783L28.4758 23.1616C27.8282 23.3865 27.6949 24.611 27.3659 25.215C26.8974 26.0792 25.7625 26.706 26.154 27.6827C28.0843 30.6462 29.6586 34.0032 31.6035 36.9374C32.1075 37.6954 32.2845 38.1369 33.2423 37.5372C35.5288 36.1065 37.9901 32.7037 39.1459 30.2984C39.9309 28.6657 40.5015 26.7664 40.7514 24.9796C40.8451 24.3008 41.1054 23.3824 40.2183 23.1783ZM32.9487 35.767L32.653 35.5067L27.8802 27.3787L29.3796 24.6548L39.1001 24.6714C38.7273 29.0031 36.2243 32.9848 32.9487 35.767Z" fill="#BABABA"/>
        <path d="M30.7503 6.40799C30.6941 6.06021 30.2318 5.8228 29.9445 5.67078C26.9771 4.12139 22.3292 3.73821 19.0766 4.38796C18.1624 4.57122 14.637 5.56457 14.1559 6.19974C13.752 6.73494 14.4183 7.49714 14.7078 8.02193C16.3924 11.0624 18.2936 14.0008 20.0428 17.0059C20.6196 17.5057 20.7654 17.16 21.2464 17.0725C21.5921 17.008 22.0044 16.9413 22.3542 16.9371C23.2746 16.9247 24.4991 17.6056 24.9843 16.8018C26.5918 13.4927 29.0761 10.246 30.6046 6.94527C30.6858 6.77034 30.7836 6.61416 30.7503 6.40799ZM23.9118 15.5252C22.9414 15.2503 21.9294 15.3711 20.9486 15.4648L15.9759 6.98484C19.9907 5.20846 24.7656 5.1689 28.8054 6.94111L23.9118 15.5252Z" fill="#BABABA"/>
    </g>
</svg>