<svg width="45" height="48" viewBox="0 0 45 48" fill="none" xmlns="http://www.w3.org/2000/svg">
<path fill-rule="evenodd" clip-rule="evenodd" d="M32.7053 18.1577L26.7302 13.7574C26.5118 13.5967 26.2322 13.583 26.002 13.7209C25.7717 13.8594 25.6277 14.1273 25.6277 14.419V28.1569C25.6277 28.594 25.9461 28.9496 26.3384 28.9496C26.7307 28.9496 27.0491 28.594 27.0491 28.1569V15.8923L31.9226 19.4804C32.2495 19.7214 32.6911 19.621 32.9072 19.2558C33.1232 18.8907 33.0327 18.3987 32.7053 18.1577ZM19.3735 28.1569V14.419C19.3735 14.1273 19.2295 13.8594 18.9992 13.7209C18.7689 13.583 18.4894 13.5967 18.271 13.7574L12.2958 18.1577C11.9684 18.3987 11.8779 18.8907 12.094 19.2558C12.3101 19.621 12.7516 19.7214 13.0786 19.4804L17.9521 15.8923V28.1569C17.9521 28.594 18.2705 28.9496 18.6628 28.9496C19.0551 28.9496 19.3735 28.594 19.3735 28.1569ZM12.2106 14.6679L16.5297 11.4877C18.3051 10.1804 19.3735 7.96618 19.3735 5.59347C19.3735 3.68156 19.3735 1.66766 19.3735 1.66766C19.3735 1.23064 19.0551 0.875 18.6628 0.875C18.2705 0.875 17.9521 1.23064 17.9521 1.66766C17.9521 1.66766 17.9521 3.68156 17.9521 5.59347C17.9521 7.43351 17.1234 9.15094 15.7465 10.1645L11.4274 13.3452C11.1 13.5862 11.0099 14.0781 11.226 14.4433C11.442 14.8085 11.8832 14.9089 12.2106 14.6679ZM25.6277 1.66766V5.59347C25.6277 7.96618 26.6961 10.1804 28.4714 11.4877L32.7906 14.6679C33.118 14.9089 33.5591 14.8085 33.7752 14.4433C33.9912 14.0781 33.9012 13.5862 33.5738 13.3452L29.2546 10.1645C27.8778 9.15094 27.0491 7.43351 27.0491 5.59347V1.66766C27.0491 1.23064 26.7307 0.875 26.3384 0.875C25.9461 0.875 25.6277 1.23064 25.6277 1.66766Z" fill="white" fill-opacity="0.6"/>
<path fill-rule="evenodd" clip-rule="evenodd" d="M21.7891 1.66766V27.759C21.7891 28.1966 22.1075 28.5517 22.4998 28.5517C22.8921 28.5517 23.2105 28.1966 23.2105 27.759V1.66766C23.2105 1.23064 22.8921 0.875 22.4998 0.875C22.1075 0.875 21.7891 1.23064 21.7891 1.66766Z" fill="white" fill-opacity="0.6"/>
<path fill-rule="evenodd" clip-rule="evenodd" d="M8.9344 29.1359C12.4623 28.3268 14.738 24.475 14.0126 20.5402C13.7136 18.919 12.9522 17.5355 11.9132 16.5251C12.5107 15.1395 12.721 13.5325 12.4221 11.9118C11.6967 7.97703 8.24312 5.43892 4.71519 6.24796C1.30098 7.03111 -0.99838 11.3976 0.432027 19.1578C1.94203 27.3487 5.52018 29.9185 8.9344 29.1359ZM8.64822 27.5828C5.77272 28.2423 3.09621 25.7364 1.82453 18.8386C1.20101 15.4566 1.31567 12.7933 1.98231 10.8903C2.5864 9.16602 3.65246 8.1102 5.00137 7.80106C7.76126 7.16798 10.4624 9.15334 11.0295 12.231C11.2991 13.6927 11.0395 15.139 10.397 16.3227C10.2047 16.6773 10.2895 17.1371 10.5918 17.378C11.6005 18.1828 12.351 19.3983 12.6201 20.8594C13.1877 23.9376 11.4076 26.9502 8.64822 27.5828Z" fill="white" fill-opacity="0.6"/>
<path fill-rule="evenodd" clip-rule="evenodd" d="M36.0655 29.1359C39.4797 29.9185 43.0579 27.3487 44.5679 19.1578C45.9983 11.3976 43.6989 7.03111 40.2847 6.24796C36.7568 5.43892 33.3032 7.97703 32.5779 11.9118C32.2789 13.5325 32.4893 15.1395 33.0867 16.5251C32.0477 17.5355 31.2863 18.919 30.9873 20.5402C30.2619 24.475 32.5376 28.3268 36.0655 29.1359ZM36.3517 27.5828C33.5923 26.9502 31.8122 23.9376 32.3798 20.8594C32.6489 19.3983 33.3994 18.1828 34.4082 17.378C34.7104 17.1371 34.7952 16.6773 34.6029 16.3227C33.9604 15.139 33.7008 13.6927 33.9704 12.231C34.5375 9.15334 37.2386 7.16798 39.9985 7.80106C41.3474 8.1102 42.4135 9.16602 43.0176 10.8903C43.6842 12.7933 43.7989 15.4566 43.1754 18.8386C41.9037 25.7364 39.2272 28.2423 36.3517 27.5828Z" fill="white" fill-opacity="0.6"/>
<path fill-rule="evenodd" clip-rule="evenodd" d="M7.07288 28.4002C6.7796 31.8039 6.96628 35.1309 7.77932 37.5618C8.37489 39.3437 9.31065 40.6616 10.5899 41.2989C11.9388 41.9706 13.7127 41.9093 15.9685 40.6616C16.3196 40.4672 16.4636 39.991 16.2893 39.5989C16.1149 39.2074 15.688 39.0467 15.3369 39.2412C13.5839 40.2109 12.2174 40.3731 11.1694 39.851C10.2109 39.3738 9.5575 38.3428 9.11118 37.008C8.36115 34.7647 8.21711 31.6924 8.48766 28.5518C8.52509 28.1164 8.23891 27.729 7.84802 27.6868C7.45761 27.645 7.11031 27.9647 7.07288 28.4002Z" fill="white" fill-opacity="0.6"/>
<path fill-rule="evenodd" clip-rule="evenodd" d="M36.7119 28.5518C36.9872 31.7521 36.8332 34.8815 36.0453 37.1337C35.5786 38.4675 34.8958 39.4827 33.8961 39.9134C32.7855 40.3921 31.3409 40.1401 29.4841 39.0224C29.1387 38.8147 28.7075 38.9585 28.5208 39.3432C28.3346 39.7284 28.4635 40.2098 28.8089 40.4175C31.1556 41.8305 33.0044 41.997 34.4083 41.3919C35.7553 40.8117 36.7403 39.5075 37.3695 37.7103C38.2247 35.2662 38.4256 31.8731 38.1267 28.4002C38.0892 27.9647 37.7415 27.645 37.3511 27.6868C36.9606 27.729 36.674 28.1164 36.7119 28.5518Z" fill="white" fill-opacity="0.6"/>
<path fill-rule="evenodd" clip-rule="evenodd" d="M15.2718 29.5705C13.4278 31.6361 13.2947 35.7664 15.1378 39.8983C16.3621 42.827 19.4849 45.7841 22.1045 47.741C22.3438 47.9196 22.6565 47.9196 22.8958 47.741C25.5173 45.7826 28.6425 42.8233 29.8678 39.8857C31.7052 35.7622 31.5716 31.6351 29.7285 29.5705C27.3775 26.9362 24.9459 26.9668 22.5002 26.9668C20.0539 26.9668 17.6228 26.9362 15.2718 29.5705ZM16.2791 30.6892C18.2937 28.4317 20.4041 28.5521 22.5002 28.5521C24.5963 28.5521 26.7066 28.4317 28.7212 30.6892C29.2897 31.3259 29.6162 32.2248 29.7299 33.269C29.9175 34.9933 29.5271 37.0923 28.5885 39.1945C28.5857 39.2008 28.5833 39.2077 28.5805 39.214C27.5116 41.7801 24.8355 44.3256 22.5002 46.1239C20.1648 44.3256 17.4888 41.7801 16.4199 39.214C16.417 39.2077 16.4142 39.2008 16.4113 39.1945C15.4732 37.0923 15.0828 34.9933 15.2704 33.269C15.3841 32.2248 15.7106 31.3259 16.2791 30.6892Z" fill="white" fill-opacity="0.6"/>
</svg>
