<svg width="45" height="48" viewBox="0 0 45 48" fill="none" xmlns="http://www.w3.org/2000/svg">
<path fill-rule="evenodd" clip-rule="evenodd" d="M23.3205 30.4895V42.9215C23.3205 43.496 23.8079 43.9622 24.4087 43.9622H30.854C31.4538 43.9622 31.9413 43.496 31.9413 42.9215V32.4959C32.2953 32.5978 32.6544 32.6377 33.0175 32.6572C33.4357 32.6799 33.859 32.6733 34.2813 32.7445C35.1489 32.8913 36.0245 33.3561 36.7236 33.8559C36.9453 34.0143 37.2602 33.9708 37.4257 33.7588C37.5912 33.5468 37.5461 33.246 37.3244 33.0875C36.5049 32.502 35.4728 31.9718 34.4558 31.8C33.9944 31.722 33.532 31.7243 33.0737 31.6996C32.6975 31.6793 32.3244 31.6412 31.9633 31.4805C31.8901 31.4482 31.8229 31.411 31.7597 31.3696C31.7417 31.3555 31.7226 31.3427 31.7036 31.3311C31.3656 31.0881 31.1519 30.7253 30.9252 30.3766C30.5401 29.7832 30.1339 29.215 29.4488 28.9313C28.7918 28.6596 28.3014 28.799 27.9804 29.0825C27.5451 29.4667 27.4077 30.24 27.7196 30.9089C28.182 31.9025 29.0697 32.4623 29.9162 33.0885C30.1359 33.2504 30.4508 33.2119 30.6203 33.0026C30.7888 32.7932 30.7487 32.4917 30.5301 32.3298C29.8139 31.7999 29.0276 31.3593 28.6354 30.5186C28.5541 30.3422 28.5281 30.1492 28.5632 29.984C28.5832 29.8894 28.6163 29.7986 28.6996 29.7626C28.7898 29.7238 28.9052 29.7515 29.0506 29.8115C29.5421 30.0153 29.7969 30.4567 30.0737 30.8827C30.3274 31.2738 30.5902 31.6594 30.9383 31.9631V42.9215C30.9383 42.9665 30.9012 43.003 30.854 43.003H24.4087C24.3616 43.003 24.3235 42.9665 24.3235 42.9215V31.2317C24.9594 31.8652 25.4869 32.6777 25.846 33.2213C26.1058 33.6152 26.3636 34.0068 26.6645 34.3745C27.0577 34.8561 27.5702 35.199 28.1529 35.4394C28.4077 35.5441 28.7026 35.4318 28.8119 35.1887C28.9222 34.9456 28.8039 34.6632 28.5501 34.5584C28.1228 34.3823 27.7427 34.1369 27.4538 33.7839C27.175 33.4416 26.9363 33.076 26.6936 32.7092C26.1369 31.8652 25.1901 30.4571 24.0888 29.8018L24.0878 29.8013L24.0848 29.7996C24.0737 29.7934 24.0637 29.7871 24.0527 29.7809C23.168 29.2694 22.1941 29.1816 21.2041 29.9995C20.9845 30.1812 20.8069 30.393 20.6555 30.6248C20.6053 30.7012 20.5783 30.7894 20.5783 30.8795V46.7102C20.5783 46.7544 20.5401 46.7908 20.494 46.7908H14.0487C14.0016 46.7908 13.9635 46.7544 13.9635 46.7102V23.0416C13.9635 22.8864 13.8852 22.7408 13.7528 22.6508C13.6204 22.5609 13.4509 22.5377 13.2975 22.5885C12.9514 22.7035 12.5452 22.8864 12.133 23.0061C11.826 23.0953 11.5161 23.1603 11.2413 23.0597C10.6636 22.8483 10.2674 22.48 9.89928 22.0818C9.46297 21.6103 9.06278 21.0974 8.5362 20.6714C7.36971 19.728 5.51416 19.0973 3.88728 19.2568C2.73483 19.3698 1.69471 19.8668 1.04376 20.8813C0.898326 21.1069 0.97255 21.4025 1.20826 21.541C1.44396 21.6795 1.75289 21.6088 1.89832 21.3833C2.50113 20.4441 3.57133 20.1382 4.67163 20.1981C5.84815 20.2623 7.0698 20.7419 7.88825 21.4038C8.37672 21.7992 8.74282 22.2799 9.14803 22.7175C9.62045 23.2284 10.142 23.6845 10.8832 23.9556C11.2734 24.0983 11.7037 24.0916 12.139 23.997C12.4158 23.9369 12.6947 23.8399 12.9604 23.7405V46.7102C12.9604 47.2838 13.4479 47.75 14.0487 47.75H20.494C21.0938 47.75 21.5813 47.2838 21.5813 46.7102C21.5813 46.7102 21.5813 32.6095 21.5813 31.024C21.6615 30.9152 21.7528 30.8142 21.8601 30.7253C22.15 30.4862 22.4318 30.3696 22.7116 30.3605C22.9203 30.3537 23.1239 30.4025 23.3205 30.4895ZM21.5813 15.4407C21.5813 10.744 21.5813 5.57834 21.5813 5.57834C21.5813 5.00427 21.0938 4.5382 20.494 4.5382H14.0487C13.4479 4.5382 12.9604 5.00427 12.9604 5.57834V18.8514C12.7027 18.9253 12.4299 19.0156 12.155 19.0931C11.821 19.1873 11.487 19.2684 11.1861 19.2243C10.5302 19.1282 9.86718 18.6486 9.28343 18.036C8.35867 17.0658 7.63851 15.7399 7.56429 14.7911C7.47702 13.6642 7.97753 12.4939 8.10691 11.3736C8.13801 11.1105 7.93941 10.8732 7.66459 10.8441C7.38876 10.815 7.14102 11.0049 7.11093 11.2679C6.97351 12.445 6.47202 13.6781 6.56429 14.8622C6.65055 15.9741 7.45797 17.5453 8.54221 18.6821C9.29747 19.4744 10.1861 20.0481 11.0337 20.1724C11.3897 20.2246 11.7809 20.1779 12.1751 20.0825C12.6575 19.9661 13.147 19.774 13.5673 19.6901C13.819 19.6397 13.9875 19.4166 13.9635 19.1772V5.57834C13.9635 5.53364 14.0016 5.49739 14.0487 5.49739H20.494C20.5401 5.49739 20.5783 5.53364 20.5783 5.57834V15.8082C20.5783 15.8142 20.5783 15.8201 20.5783 15.8261V19.5658V19.5699V19.5755V23.0763C20.5783 23.1584 20.6003 23.2392 20.6424 23.3109C20.9423 23.8216 21.2623 24.3273 21.7257 24.7212C22.3265 25.2325 22.9684 25.5541 23.6374 25.7624C23.6585 25.7703 23.6805 25.7769 23.7026 25.7822C24.3927 25.9892 25.1108 26.0787 25.842 26.134C27.1469 26.2327 28.492 26.2131 29.7517 26.7276C30.2532 26.9324 30.6614 27.2594 31.0366 27.6308C31.0616 27.663 31.0897 27.692 31.1218 27.7174C31.3676 27.9677 31.5992 28.235 31.836 28.4963C32.5712 29.3092 33.3405 30.0712 34.4508 30.3657C35.4438 30.629 36.5641 30.4091 37.541 30.1838C37.8098 30.1217 37.9763 29.8625 37.9111 29.6051C37.8459 29.3479 37.5752 29.1893 37.3064 29.2514C36.4869 29.4401 35.5511 29.6621 34.7186 29.4414C33.8049 29.1991 33.2 28.5376 32.5942 27.8687C32.3786 27.6307 32.1639 27.3912 31.9413 27.1612V17.6898C32.4819 16.5667 33.0998 15.7393 34.4969 15.5961C34.8219 15.5628 35.181 15.5913 35.536 15.602C35.9743 15.6151 36.4066 15.6022 36.7868 15.4876C37.2441 15.3495 37.6082 15.1083 37.9603 14.8663C38.3364 14.6083 38.6895 14.3338 39.2522 14.3686C39.527 14.3856 39.7828 14.482 40.0365 14.5851C40.3635 14.7177 40.6875 14.8648 41.0245 14.9533C42.1528 15.25 43.3986 15.3183 44.557 15.1872C44.8329 15.1562 45.0295 14.9176 44.9964 14.6547C44.9643 14.3919 44.7145 14.2037 44.4397 14.2347C43.4066 14.3515 42.2963 14.2928 41.2903 14.0284C40.9964 13.951 40.7145 13.818 40.4287 13.702C40.0696 13.5565 39.7045 13.4354 39.3163 13.4114C38.6042 13.3673 38.0967 13.6097 37.6183 13.9233C37.2662 14.1537 36.9382 14.4359 36.4849 14.5729C36.207 14.6568 35.8891 14.6529 35.5681 14.6433C35.1649 14.6311 34.7577 14.6046 34.3906 14.6423C32.5431 14.8317 31.6915 15.8828 30.9824 17.389C30.9533 17.4508 30.9383 17.518 30.9383 17.5859V26.2815C30.6935 26.1106 30.4318 25.9621 30.1459 25.8455C28.7828 25.289 27.3315 25.2846 25.9212 25.1778C25.3796 25.1369 24.844 25.0802 24.3235 24.9559V19.2534C24.3235 19.0982 24.2452 18.9526 24.1128 18.8626C23.9814 18.7727 23.8109 18.7495 23.6585 18.8003C23.3114 18.9153 22.9052 19.0983 22.494 19.218C22.1871 19.3072 21.8761 19.3722 21.6013 19.2715C21.5953 19.2691 21.5883 19.2667 21.5813 19.2642V16.4026C21.8852 16.4188 22.2091 16.3733 22.5351 16.2943C23.0176 16.1779 23.508 15.9858 23.9273 15.9019C24.179 15.8515 24.3475 15.6284 24.3235 15.389V1.79014C24.3235 1.74544 24.3616 1.70918 24.4087 1.70918H30.854C30.9012 1.70918 30.9383 1.74544 30.9383 1.79014V13.9608C30.9383 14.0905 30.9934 14.2146 31.0907 14.305C31.188 14.3953 31.3194 14.4441 31.4548 14.4402C33.6364 14.3787 36.2803 12.7795 36.5792 10.526C36.6454 10.0286 36.5691 9.53228 36.4598 9.03754C36.3665 8.61511 36.2472 8.19403 36.209 7.77285C36.0777 6.29916 36.7286 4.90624 37.9152 3.98523C38.1308 3.81852 38.1639 3.51619 37.9894 3.31064C37.8149 3.10508 37.4989 3.07362 37.2833 3.24033C35.8379 4.362 35.0496 6.06004 35.2101 7.85467C35.2512 8.31451 35.3766 8.7752 35.4789 9.23637C35.5651 9.62523 35.6363 10.0144 35.5842 10.4054C35.4668 11.2903 34.87 12.0314 34.1017 12.5659C33.4558 13.0156 32.6845 13.321 31.9413 13.4341V1.79014C31.9413 1.21607 31.4538 0.75 30.854 0.75H24.4087C23.8079 0.75 23.3205 1.21607 23.3205 1.79014V15.0633C23.0627 15.1371 22.7899 15.2275 22.5151 15.3049C22.1941 15.3955 21.8731 15.4739 21.5813 15.4407ZM23.3205 24.6071V19.9523C23.0547 20.0517 22.7758 20.1487 22.499 20.2088C22.1861 20.2768 21.8761 20.2994 21.5813 20.2537V22.9508C21.8069 23.3325 22.0467 23.7101 22.3927 24.0045C22.6906 24.2579 23.0005 24.4539 23.3205 24.6071ZM4.08086 16.7875C3.9294 16.9138 3.71577 16.9871 3.49912 17.0531C3.18518 17.1483 2.8592 17.2173 2.59842 17.3024C1.62952 17.6199 0.743865 18.0793 0.104952 18.8694C-0.0645553 19.0787 -0.0244338 19.3801 0.194221 19.5421C0.412876 19.7041 0.728823 19.6657 0.898331 19.4564C1.41387 18.8186 2.14105 18.4662 2.92339 18.2099C3.23532 18.1078 3.64355 18.029 4.00764 17.9C4.31857 17.7904 4.59941 17.6448 4.80904 17.4492C4.96049 17.3074 5.07684 17.0499 5.11295 16.722C5.1621 16.2711 5.07785 15.6383 5.10192 15.3677C5.21727 14.077 5.59037 12.8675 6.17111 11.7006C6.29047 11.4616 6.18415 11.1753 5.93441 11.0615C5.68365 10.9478 5.38477 11.0495 5.26541 11.2886C4.63352 12.5603 4.2283 13.8792 4.10292 15.2859C4.08186 15.5216 4.14004 16.0278 4.126 16.4562C4.12199 16.574 4.08988 16.7424 4.08086 16.7875ZM13.816 18.879C13.802 18.8184 13.7629 18.7714 13.6906 18.7472C13.6184 18.7229 13.5121 18.7212 13.3616 18.7512C13.5322 18.7172 13.7007 18.7704 13.816 18.879ZM24.176 15.0908C24.162 15.0302 24.1229 14.9833 24.0506 14.959C23.9784 14.9347 23.8721 14.9331 23.7227 14.963C23.8922 14.929 24.0607 14.9822 24.176 15.0908ZM44.3705 11.5965C43.3605 11.6277 42.3494 11.6196 41.3384 11.6487C41.0044 11.6583 40.5882 11.7128 40.2953 11.5244C40.0676 11.378 39.9422 11.1593 39.8379 10.9286C39.6935 10.6119 39.5912 10.2692 39.4457 9.96392C39.197 9.44174 38.8419 8.9563 38.7336 8.38126C38.4638 6.94681 39.3033 5.66284 40.6263 5.03218C40.874 4.9141 40.9743 4.62587 40.8509 4.38895C40.7276 4.15213 40.4257 4.05564 40.1779 4.17381C38.4558 4.99496 37.3956 6.68312 37.7467 8.55094C37.87 9.20501 38.2502 9.7669 38.533 10.3609C38.6754 10.6616 38.7757 10.9994 38.9182 11.3113C39.0987 11.7093 39.3424 12.0673 39.7346 12.32C40.197 12.6177 40.8409 12.6227 41.3695 12.6074C42.3805 12.5783 43.3926 12.5864 44.4036 12.5552C44.6804 12.5467 44.8971 12.3249 44.888 12.0604C44.88 11.7959 44.6473 11.588 44.3705 11.5965Z" fill="white" fill-opacity="0.6"/>
</svg>
